/* XPM */
static char *c7494e1f81144e24e53065bc8cc1e139z5CZtD4PDDdPKBb1[] = {
/* columns rows colors chars-per-pixel */
"80 80 234 2 ",
"   c None",
".  c #000000",
"X  c #00000C",
"o  c #040C0B",
"O  c #09110F",
"+  c #18110A",
"@  c #000119",
"#  c #181917",
"$  c #140D0C",
"%  c #27180C",
"&  c #2B1C0E",
"*  c #241809",
"=  c #270F17",
"-  c #290A15",
";  c #330216",
":  c #340C16",
">  c #390F17",
",  c #281017",
"<  c #251B14",
"1  c #2D1E14",
"2  c #2C1519",
"3  c #261716",
"4  c #361317",
"5  c #301F11",
"6  c #381517",
"7  c #242017",
"8  c #2C2116",
"9  c #252119",
"0  c #2C231A",
"q  c #312113",
"w  c #3A2215",
"e  c #3F2619",
"r  c #312319",
"t  c #1B2426",
"y  c #152325",
"u  c #292A28",
"i  c #49180A",
"p  c #471714",
"a  c #4A1C14",
"s  c #471816",
"d  c #4E130F",
"f  c #43271B",
"g  c #45281E",
"h  c #492118",
"j  c #592818",
"k  c #472920",
"l  c #492B24",
"z  c #4A2E29",
"x  c #4C322D",
"c  c #523E2C",
"v  c #4D3531",
"b  c #493939",
"n  c #553733",
"m  c #6D3421",
"M  c #53412E",
"N  c #544331",
"B  c #5C4733",
"V  c #6F553D",
"C  c #61513E",
"Z  c #795937",
"A  c #774834",
"S  c #473F40",
"D  c #6F5543",
"F  c #6E564A",
"G  c #705846",
"H  c #695A59",
"J  c #69564F",
"K  c #813A23",
"L  c #8A4A26",
"P  c #894826",
"I  c #8D5126",
"U  c #8A552E",
"Y  c #9A542A",
"T  c #96572A",
"R  c #8C5135",
"E  c #9A6632",
"W  c #9C6A35",
"Q  c #996838",
"!  c #8A643A",
"~  c #A96A37",
"^  c #AB6E39",
"/  c #A86438",
"(  c #B36532",
")  c #B76A34",
"_  c #B96D35",
"`  c #BD6A3D",
"'  c #AC723C",
"]  c #BB7036",
"[  c #BD7138",
"{  c #B7662D",
"}  c #D16D2E",
"|  c #CE6E35",
" . c #C26B3E",
".. c #D16F34",
"X. c #C27535",
"o. c #C97637",
"O. c #D37336",
"+. c #DA7535",
"@. c #DB7A36",
"#. c #D57638",
"$. c #D77839",
"%. c #DA7C3B",
"&. c #D87737",
"*. c #D16D2E",
"=. c #E17D36",
"-. c #E27E38",
";. c #925647",
":. c #945648",
">. c #9C5E4B",
",. c #995940",
"<. c #8E5445",
"1. c #9E604D",
"2. c #906153",
"3. c #A5644D",
"4. c #B66C4D",
"5. c #B96E4E",
"6. c #B8724C",
"7. c #A56651",
"8. c #AC6C56",
"9. c #AF6E58",
"0. c #B46C52",
"q. c #B96E52",
"w. c #B16F59",
"e. c #B67158",
"r. c #AB7253",
"t. c #B67B69",
"y. c #B97E6A",
"u. c #B47966",
"i. c #C36E40",
"p. c #CB7644",
"a. c #CE7A46",
"s. c #C87745",
"d. c #D07B46",
"f. c #C97D5C",
"g. c #CC7F60",
"h. c #DD823E",
"j. c #E2843C",
"k. c #E5893D",
"l. c #EA8C3E",
"z. c #E6843B",
"x. c #D48442",
"c. c #DF8440",
"v. c #D78946",
"b. c #D5854D",
"n. c #D78C49",
"m. c #DA8D4A",
"M. c #D98A46",
"N. c #D9904C",
"B. c #CE815D",
"V. c #C0885E",
"C. c #D98A51",
"Z. c #D1835E",
"A. c #D48654",
"S. c #D19553",
"D. c #D39A59",
"F. c #CD8E4E",
"G. c #E18741",
"H. c #E48C44",
"J. c #E98E43",
"K. c #E28D4B",
"L. c #E69047",
"P. c #EB9344",
"I. c #E79249",
"U. c #E9954B",
"Y. c #EB994E",
"T. c #EF9945",
"R. c #F19644",
"E. c #F29A46",
"W. c #F39E4A",
"Q. c #ED9D52",
"!. c #E79854",
"~. c #F19F52",
"^. c #F5A24C",
"/. c #F9A44E",
"(. c #EFA154",
"). c #ECA25B",
"_. c #F1A356",
"`. c #FBAB53",
"'. c #F1A659",
"]. c #F3AA5D",
"[. c #FAA752",
"{. c #FAB05A",
"}. c #CA8364",
"|. c #D28462",
" X c #D88C63",
".X c #D99866",
"XX c #D6A66B",
"oX c #D6A367",
"OX c #D7AA73",
"+X c #DAAC76",
"@X c #D8B17D",
"#X c #D7B07D",
"$X c #EEA967",
"%X c #F5AE61",
"&X c #F2AD6D",
"*X c #F6B164",
"=X c #FCB565",
"-X c #F5B36D",
";X c #FEBA6B",
":X c #F8B56A",
">X c #F0AD70",
",X c #F7B974",
"<X c #F9BC75",
"1X c #F9BE7B",
"2X c #F6B875",
"3X c #EDAC77",
"4X c #DD9E68",
"5X c #FFC47B",
"6X c #FFC378",
"7X c #FFC26E",
"8X c #D8AE86",
"9X c #F7BE83",
"0X c #EAB897",
"qX c #F3B58A",
"wX c #FBC382",
"eX c #FFC985",
"rX c #F5C48B",
"tX c #F9C38C",
"yX c #FFCE8C",
"uX c #F5C187",
"iX c #FAC691",
"pX c #F7CA95",
"aX c #F7CC98",
"sX c #F8C892",
"dX c #FFD396",
"fX c #FFD49A",
"gX c #FFD99D",
"hX c #FFD18C",
"jX c #FFD3A3",
"kX c #FFD4AB",
"lX c #FFDBA0",
"zX c #FCCBAA",
"xX c #FFE0A3",
"cX c #FFE4CF",
/* pixels */
"  hXxXlXgXgXxXgXgXgXgXgXlXgXgXgXfXgXfXfXgXfXfXgXdXgXdXgXdXdXgXdXdXgXgXdXgXcX          dXdXdXdXdXdXdXdXdXdXdXdXdXfXfXdXfXfXfXfXjXfXjXjXjXjXjXjXkXjXkXkXkXkXkXcX  ",
"{.7X6X1X,X6X6X,X2X6X,X6X6X,X6X,X<X,X6X,X7X,X2X2X<X,X:X,X,X,X:X7X,X-X:X,X*XaX0X      7X7X-X:X-X-X-X-X-X-X-X-X&X&X-X&X-X-X&X&X&X&X&X&X&X&X&X&X&X&X&X>X>X>X>X&X3X8X",
"^.`.*X*X*X*X*X*X*X*X*X*X*X*X$X%X*X*X*X].%X%X%X%X%X].%X].%X].].].].].].'.%X X}.N . ' `._.'._._._.(.'.(._.(.(.(.^.Q.(.Q.Y.Q.Q.Y.W.Q.Y.Y.E.U.Y.Y.Y.U.T.J.P.P.T.b.4.",
"^.{.:X*X:X:X*X*X-X*X*X*X*X*X*X*X*X*X*X*X*X*X*X*X%X*X*X%X%X%X%X%X].%X%X].%X+X}.r . ~ {.'.].].].'.].'.'.'.'.'.(.'.(.)._.(.~._.Q.Q.Q.~.Q.Q.Q.Q.Y.Q.Q.Q.Q.!.Y.Q.C.w.",
"^.`.*X*X*X*X*X*X*X*X*X*X*X*X*X*X*X%X%X*X%X%X%X%X%X%X%X%X%X].%X].].%X].].%X4Xg.6 . W {.'.'.'.'.'.'.(.'.(.'.(.(.(.Q._._.Q.Q.Q.~.Q.Q.Q.Q.Q.Q.Q.Y.Q.U.Y.Y.Y.U.Y.C.w.",
"^.`.*X*X*X*X*X*X*X*X*X*X*X*X*X%X*X%X%X%X%X%X%X%X%X%X].%X].].].].'.].].].'..Xy.2 . W {.[.'.'.(.'.(.'.(.'.(.(.(.(._.(.Q._.).~.Q.Q.Q.Q.Q.Y.Y.Y.Y.Y.Q.Y.Y.Y.U.Y.C.w.",
"W.`.*X*X*X*X*X*X%X%X%X%X*X%X%X%X*X%X*X%X%X].%X%X].].].%X].].].].%X'.].].]. Xf.5 . W `.'.'.(.(.'.'.'.(.(.(.(.(.(.Q.(._.Q._.Q.Q.Q.Q.Y.Y.Q.Y.!.!.Y.U.U.Y.Y.U.Y.C.w.",
"T.`.*X*X*X*X%X%X%X%X%X%X%X%X%X].%X].].].%X].].%X].%X].].].].].].].'.'.].'. Xe.q . W `.(.'.'.'.(.(.(.(.(.(.(.(.(.(.Q.Q.Q.Y.Q.Q.Y.Q.Q.Y.Y.Y.Q.U.Y.U.Y.U.U.Y.Y.C.w.",
"T.`.%X%X%X%X%X%X%X%X%X%X%X%X].%X{.%X%X].%X].].].].].].].'.].].'.'.'.].'.'. Xe.q . W `._.(.).(.'.(._._.(.(.(.Q._.Q.Q.~.Q.Y.Q.Q.Y.!.Q.Y.Y.Y.U.Y.U.U.U.U.U.U.Y.C.w.",
"T.`.%X{.%X%X%X%X].%X].%X%X].].].].].].].].].].].].'.].].].].'.'.'.'.'.).'.Z.0.8 . W `._.(.(.(.(.(.(.Q._.Q.Q.~.Q._.Y.Q.Q.Q.Y.Y.Q.!.Y.Y.Y.Y.Y.Y.Y.U.U.U.U.U.U.b.w.",
"T.{.].%X].].%X].%X].%X].%X].].].'.].].].].].].].'.].].'.'.'.'.'.'.'.'.'.'.Z.0.5 . W `.^.(.(.(.(.Q.(.Q.Q.Q.(.Q.Q.Y.Q.Y.Q.Y.Q.Y.Q.Y.Y.Y.U.U.U.Y.U.U.U.U.U.U.U.C.w.",
"T.`.%X%X].].].].].].].].].].].].].].].].'.].).'.'.'.'.'.'.'._.'.'.).'.'.(.Z.0.q . E `.(.(.(.(.(.(.Q._.Q.(.Y.Q.Q.Y.Q.Q.Y.Q.Y.Y.Y.Y.Y.Y.Y.Y.U.U.U.U.U.U.I.U.U.b.w.",
"T.`.].].].].].].].].].].].].].].].'.].].'.'.'.'.'.'.'.).'.'.'.'.'.'.'.(.(.Z.0.q . W `.(.(.(.^.(.Q.Q._.Y.Q.Q.Q.Q.Q.Y.Y.!.Y.Y.Y.Y.U.Y.Y.Y.U.U.U.U.U.I.U.U.K.T.b.w.",
"T./.].].].].].'.].].'.].'.'.'.'.'.'.'.'.'.'.'.'.'.'.'.'.'.(.(.'.(._.(._.(.B.0.q . E /.^.Q.Q.Q.Q.Q.Q.(.Y.Q.Y.Y.Y.Y.Y.Y.Y.Y.Y.Y.U.U.U.U.U.Y.U.I.U.U.U.U.K.U.I.b.w.",
"T./.].].'.].].'.'.].].'.'.].'.'.'.'.'.'.'.'.'.'.'.'.'.'.'._._.(._.(.(.(.(.B.0.q . E `.Q.Q.Q.(.Q.Y._.Y.Q.Q.Q.Q.Y.Y.Y.Q.Y.U.Y.U.!.Y.!.Y.U.I.U.U.I.I.I.U.K.I.U.b.w.",
"T./.'.'.].'.'.].'.'.'.'.'.'.'.'.'.'.'.'.'.'.(.'.(.'.(._.(.(._.(.(.(.(._.(.B.0.8 . E /.Q.Q.Q.Q.Q.Q.Y.Q.Y.Y.Y.Y.Q.Y.Y.U.Y.Y.Y.U.U.I.Y.I.U.U.I.U.I.I.J.U.I.I.P.b.8.",
"T.^.'.'.'.'.'.'.'.'.'._.'.'.'.'.'._.'.'.(.'._.(._._.(.(._.(.(._.(.(.(.(.(.B.0.q . E /.Y.Q.Q.Y.Q.Y.Y.Q.Y.Y.Y.Y.Y.Y.U.Y.U.!.U.Y.I.U.U.U.U.I.I.U.H.U.U.I.K.I.I.b.8.",
"T.^.'.'.'.'.'.'._.'.'.'._._.(.'.'.(.(._._.(.'.(.(.(.(.(.(.(._.Q.(.Q.Q.(.Q.B.0.& . W /.Y.Q.Y.Q.Q.Y.Q.Y.Y.Y.Y.Y.Y.U.Y.Y.U.U.U.U.!.U.I.U.K.I.I.L.U.I.H.I.J.H.L.b.8.",
"P.^.'.'._.'.'._._._.'._.(.'.(._.(.'._._._.(.(.(.(._.~._.(.(.(.(.Q.(.Q.Q.Q.B.0.1 . E /.Y.Q.Y.Y.Y.Q.Y.Y.Y.Y.Y.Y.Y.Y.Y.U.U.U.U.U.I.U.U.U.L.I.I.I.L.I.I.H.I.H.I.b.8.",
"P.^.'.(._._._._._._._._.(.'._.(.(.(.(.(.(.(.(.(.(.(.Q._.Q.(.Y.(.(.Q.Q.Q.Q.B.0.q . E ^.Y.Q.Y.Q.Y.U.Y.Y.Y.U.Y.U.U.U.U.U.U.U.K.U.U.U.K.U.U.I.I.J.I.J.K.I.H.I.H.b.r.",
"P.W.(.(.(.(.(.(._._.(._.(.Q._._.Q.Q.(.(.(.Q.Q.(.Y.(.Q.Y.Q.Y.Q.Y.Y.Q.Q.!.Y.f.0.1 . E ^.Y.Y.Y.Y.Y.Y.U.U.U.U.Y.U.U.U.U.P.U.U.U.U.K.I.I.L.H.K.H.L.L.H.H.m.L.H.L.b.8.",
"R./.].'.'.[.'.'.'._._._.'.[._._.'.[._._._._._.[._._._._._._._._._.W.W._.~.Z.0.1 . E /.T._.Y.Y.Y.Y.Q.W.Y.Y.Q.Y.Y.U.Y.Y.U.U.U.R.U.T.U.U.U.U.P.U.J.I.U.L.L.J.P.b.9.",
"h.L.N.N.N.N.N.N.N.N.N.N.m.N.N.m.m.N.N.m.n.n.n.n.N.n.n.N.M.m.m.n.n.n.n.n.v.q.7.q . T T.M.M.M.M.M.M.m.M.m.v.v.v.M.v.x.M.x.x.v.x.x.h.v.x.x.x.x.x.x.x.h.h.x.h.h.[ 7.",
"  a i p a p p p p p s p p p s s p p p s s p p p a p p p s p s a p s s s i n S + < 1 K m s a h a a a a a a a a a a a a a a a a a a a a a a a a h a a p i i ; j m ",
"    x k g g g g g g g f g f g g g g g g g l g g g g g g g g g k g g g g l b . + < O 1 j z l k z k l l z l l z z x x v v v v v v v v x v v v b v n b n b C H F   ",
"    9 9 9 9 7 7 7 7 7 7 9 9 7 7 7 # O O O o 7 7 7 7 7 0 9 7 9 < 7 7 7 7 0 * 0 r r r 8 9 9 < 9 < 9 7 7 7 0 9 9 9 0 < O # # # # 9 9 0 9 9 9 9 9 0 0 9 u 0 u u     ",
"    . . . . . . . . . . . . . . . . 1 + + 0 . . . . . . . . . . . . . . . . . . . . . . . . . . . . . . . . . . . . < + $ < . . . . . . . . . . . . . . . .     ",
"    8X@X8X@X@X#X@X@X@X@X@X@X#X#X@X! . 8 0 . Z OX+XOXOXOXOXOXOXOXOXOXOXXXXXXXXXXXXXXXXXXXXXXXoXoXoXoXoXD.oX.XoXD.oXE . < 1 . N D.D.D.D.S.D.S.S.S.S.S.S.S.S.OX0X  ",
"  5XgXfXfXfXaXdXfXdXdXdXdXdXdXdXyX%XZ X X Z :XhXdXhXyXyXyXyXyXeXyXeXeXeXhXeXeXeX5XeX5X5X5X5X5X5X6X6X6X<X6X<X<X<X6X).U X . M $X7X;X;X:X;X=X=X=X=X:X=X=X=X,XiXkXqX",
"T._.(.(.(.(.(.(.(.(.(.Q.(.!.!.(.!. X}.y . h.^.!.Q.!.Q.Q.Q.!.!.Y.Y.!.!.Y.Y.Y.Y.U.!.Y.!.U.!.U.U.U.I.U.U.U.U.U.U.I.I.s.3.q . 6./.I.K.K.H.K.H.K.H.K.H.K.H.G.K.K.A.y.",
"k.P.Y.T.Y.Y.Y.Y.Y.Y.Y.U.Y.Y.U.U.!.|.y.u . X.T.U.U.U.U.U.U.U.U.U.U.I.I.U.U.I.I.I.I.L.L.L.L.L.H.I.I.H.K.H.H.H.L.H.J.5.:.q . ' W.L.c.H.H.c.H.H.G.G.G.G.G.c.c.G.a.7.",
"k.P.Q.Y.!.Y.Y.Y.Y.Y.Y.Y.Y.Y.Y.Y.!.|.y.t . o.T.Y.Y.U.U.U.U.U.U.U.U.U.U.I.U.U.I.I.U.I.I.I.I.I.I.I.I.L.I.I.I.I.H.H.L.5.:.q . ' E.L.H.H.H.H.H.G.H.G.H.G.G.G.G.H.d.8.",
"h.P.Y.Y.Y.Y.Y.Y.Y.U.Y.Y.Y.Y.Y.U.!.|.y.t . X.T.I.U.U.U.U.U.U.U.U.U.U.I.I.I.U.I.I.I.L.U.I.L.I.I.H.I.L.L.H.H.H.K.L.L.5.;.q . ' W.J.G.H.G.H.G.G.H.G.G.G.c.G.c.G.d.7.",
"k.I.Y.Y.U.Y.U.U.U.Y.U.U.U.U.U.T.I. Xy.t . o.P.U.U.I.U.U.L.U.I.I.I.I.I.I.I.I.I.L.L.I.H.L.U.H.I.L.H.J.I.H.H.K.H.H.J.5.;.5 . ' W.H.H.H.H.G.H.G.G.G.c.G.c.G.c.k.d.7.",
"k.l.Y.U.T.U.U.Y.Y.U.U.U.U.U.U.Y.!.}.y.t . h.R.I.U.U.L.U.U.L.U.I.I.I.I.I.I.L.L.I.L.L.I.H.H.L.H.K.H.I.H.H.H.H.K.H.H.5.;.5 . ^ E.k.G.G.G.G.c.K.G.c.c.G.c.c.c.G.d.7.",
"k.l.U.U.U.U.T.U.U.U.U.U.U.U.U.U.I.Z.y.t . ] P.I.I.L.U.I.I.I.L.I.I.L.I.L.L.L.L.L.I.L.H.I.H.L.L.H.K.H.H.H.H.H.H.H.J.5.;.q . ^ E.H.G.K.G.G.c.G.c.G.c.G.c.c.G.G.d.7.",
"k.I.T.U.U.U.U.U.U.U.U.I.U.U.I.P.I.|.y.t . X.T.L.I.I.I.I.I.L.I.L.L.L.L.L.L.L.L.H.L.H.L.I.L.H.H.H.H.H.H.H.H.H.H.G.H.5.;.q . ^ W.H.c.G.G.G.c.G.c.c.c.c.c.c.d.z.a.7.",
"k.l.T.N.I.U.U.I.U.U.U.U.I.U.I.I.K.}.y.t . X.P.L.I.I.L.I.I.L.L.L.L.L.H.L.L.L.H.L.L.H.H.H.H.K.H.H.H.H.H.H.H.H.H.H.k.5.;.5 . ^ E.k.G.G.G.c.G.c.c.c.c.G.G.G.-.k.d.7.",
"h.k.Y.I.I.U.L.U.L.U.I.I.P.U.U.I.K.}.t.t . X.l.L.L.L.L.L.L.L.L.L.L.L.L.L.L.H.L.H.H.L.L.H.H.H.H.H.H.H.H.H.G.G.H.c.G.5.:.q . ^ T.G.c.G.c.c.c.c.c.c.c.c.d.%.c.j.p.7.",
"j.L.T.I.P.U.L.U.L.L.U.L.I.L.L.P.K.|.t.t . X.P.L.L.L.L.L.L.L.H.L.L.H.H.L.H.L.H.H.H.H.H.H.H.H.H.H.H.H.G.G.H.H.G.H.G.5.:.& . ^ T.k.c.G.c.c.c.c.c.c.c.c.j.G.d.k.d.7.",
"h.l.I.I.I.I.P.I.L.I.I.I.I.P.L.L.K.|.u.t . X.J.H.L.H.L.L.H.L.H.L.H.L.H.H.H.H.H.H.H.H.H.H.H.H.H.G.H.G.H.H.H.G.G.G.G.5.:.5 . ^ R.k.c.G.h.c.d.j.c.c.d.c.c.%.c.%.p.7.",
"h.l.T.N.I.I.l.I.L.L.L.L.H.L.H.P.C.|.t.t . X.P.H.L.L.H.L.L.H.L.H.H.H.H.H.J.H.H.H.H.H.H.M.H.G.G.H.H.H.c.G.G.G.G.G.G.5.;.& . ^ R.M.h.G.c.c.j.j.%.c.j.c.%.c.d.j.a.7.",
"h.k.l.l.L.L.N.P.L.L.J.I.L.L.L.L.K.g.t.t . X.l.J.H.H.H.H.H.H.H.L.H.H.H.H.H.H.H.H.H.H.G.H.G.H.H.G.M.G.H.c.G.c.M.k.k.5.<.5 . ^ R.j.G.h.c.c.c.c.d.c.j.%.%.c.j.-.p.7.",
"z.k.U.I.L.L.L.L.L.L.H.L.L.H.H.L.K.g.u.t . [ l.H.L.H.J.H.H.H.H.H.H.H.H.H.H.G.H.H.G.G.H.G.G.G.G.G.G.G.G.G.G.G.G.c.h.5.;.8 . ~ P.k.j.j.d.c.%.c.j.-.c.h.c.%.%.h.p.7.",
"h.k.L.H.L.L.L.M.L.H.L.I.J.K.L.J.H.g.u.y . [ l.H.H.H.H.H.H.H.H.H.H.M.G.H.H.G.H.G.G.H.G.H.G.G.k.G.G.G.G.G.c.G.c.c.j.4.;.5 . ~ P.k.%.G.c.%.c.%.j.d.%.%.d.j.j.j.p.3.",
"@.k.L.J.k.L.L.L.H.L.H.H.H.H.H.H.K.}.u.y . X.l.G.H.H.H.H.H.G.J.G.G.H.H.G.G.H.G.G.G.G.G.G.G.G.M.G.G.G.G.h.c.c.c.c.h.4.;.1 . ~ P.h.h.h.%.c.c.j.%.j.%.c.h.%.d.%.p.7.",
"h.z.L.H.M.L.k.L.H.H.H.H.H.H.H.H.m.g.u.y . X.l.G.H.G.H.H.G.H.G.H.H.H.G.J.H.G.G.G.G.G.G.G.G.k.G.G.G.G.G.h.c.c.c.k.h.4.;.& . ~ l.k.h.h.%.j.%.%.h.%.d.%.%.%.%.%.p.7.",
"h.j.L.L.k.L.k.L.H.H.J.H.H.H.H.H.G.g.u.t . ] k.H.H.H.G.G.H.G.H.G.G.G.G.G.M.k.G.G.G.G.G.G.G.M.h.G.c.h.c.G.c.c.h.h.h.4.;.q . ~ P.h.z.d.c.%.j.d.%.%.j.h.%.%.$.%.p.7.",
"@.z.k.h.H.G.H.H.H.c.H.H.H.H.G.G.G.g.u.y . _ k.k.G.G.G.G.G.G.G.G.k.G.c.G.c.j.M.c.c.h.c.h.c.c.M.h.h.j.h.c.c.%.c.%.j.4.;.& . ~ l.h.$.d.-.%.$.%.%.%.%.$.%.%.d.@.p.3.",
"z.z.I.P.L.J.J.J.L.L.J.J.H.J.J.I.L.|.t.y . o.l.k.H.J.J.H.H.H.J.H.H.H.J.H.H.J.H.H.H.H.J.H.G.k.l.G.H.G.G.G.G.G.G.G.G.q.:.q . ~ R.k.G.-.j.G.G.G.j.%.G.%.%.G.-.-.d.7.",
"{ X.[ ] ] ] ] _ [ [ ] [ _ _ ] ] [ 3.2.y . T X.) _ ] ] _ ) _ _ ) ) ) ) ) ) ) ) _ _ _ ) ) ) ) ) ) ) ) ) ) ) ) ) ) ) R A < . R o.{ ) ) ( ( ( ) ) ( ( ( ( ( ( ( / :.",
"  $ ; ; ; ; ; ; ; ; : ; : : : ; 6 6 . + < X ; : : : : : : : > > : : : : > > : : : : : : > > 4 6 > > > > 4 : 4 4 > h X + 3 X a a , 6 6 4 > > 4 4 6 6 6 > > : k   ",
"    f e e e e e e e e e e e e e f 0 0 < 7 0 r f f e e e e e e e f f e e f w w w w w w e f f e f e e e f f e f e f r < < < 8 0 g f e e f f e f f e e f f e f     ",
"    . . . . . . . . . . . . . . . . . . . . . . . . . . . . . . . . . . . + + o o o < . . . . . . . . . . . . . . . . . . . . . . . . . . . . . . . . . . .     ",
"    C N N N M M N N N c M N M M M N N N N N N N N M M M N M M M M M c c N @ . + + < . B V V V C V V V D V V V D D D D G G G G G D D D D D D D F F D F D F H     ",
"  ,XlXaXaXaXaXpXaXpXpXpXpXpXpXpXpXpXpXpXpXpXpXpXsXtXrXrXrXtXrXrXuXuXuXuXwXV.@ + 9 . ! ,XwXuX5X5X5X1X1X1X1X1X,X,X1X,X1X,X,X,X,X,X2X-X&X-X-X-X-X&X-X&X&X&X-XiXiX  ",
"T.;XpXpXpXtXpXpXiXiXpXpXtXtXtXtXtXtXtXtXtXrXtXwXuXtXuXuXuXuXuX9XuX9X9X1X1X!.r.@ . A ^.%X3X-X&X>X>X&X&X&X$X$X$X&X$X$X$X$X).$X).).$XQ.$XQ.).).!.).!.!.Q.!.Q.3XqX X",
"+.=.j.h.j.h.j.h.h.h.h.h.j.h.h.k.%.h.h.h.h.h.h.h.j.%.j.h.j.%.h.%.h.%.h.%.$.0.3.8 . T j.@.$.$.#.#.$.&.&.$.%.&.+.@.&.+.$.#.#.&.&.#.&.&.O.O.#.#.#.#.d.#.#.#.#.O.` >.",
"+.z.G.k.h.h.k.h.h.k.h.c.G.h.h.c.c.c.c.k.h.h.h.h.c.%.c.%.%.j.c.h.h.h.h.h.h.q.3.% . I z.h.h.h.h.h.h.h.h.%.%.%.%.%.%.%.%.%.%.%.%.$.d.@.$.$.$.$.$.$.&.$.#.$.p.+.s.7.",
"O.=.h.h.h.k.h.h.h.h.h.h.h.h.h.h.h.c.%.h.h.h.h.h.%.c.%.c.h.h.%.h.h.%.%.h.%.q.1.< . I z.h.h.$.$.h.$.$.%.%.%.%.%.%.%.$.%.$.%.%.$.$.$.$.$.$.$.$.$.$.$.$.#.$.&.&.i.1.",
"+.=.h.h.h.j.h.h.h.h.h.h.h.h.h.h.h.h.h.h.h.h.h.h.G.h.%.h.h.h.%.h.%.j.j.d.%.f.>.% . I k.%.%.%.%.%.h.h.$.h.$.%.%.d.%.$.%.d.#.%.#.$.d.+.#.#.#.#.#.#.#.#.#.#.O.$.i.1.",
"+.@.j.h.h.h.h.h.h.h.h.h.h.h.h.h.h.h.h.%.%.h.h.%.%.h.c.%.%.h.h.%.%.%.%.-.%.e.>.% . I z.%.%.%.%.%.$.$.$.$.%.%.$.$.$.%.#.$.%.#.#.$.$.#.#.#.+.#.#.#.#.#.#.O.O.$.i.1.",
"+.=.h.h.j.h.h.h.h.h.h.h.%.h.h.h.%.j.h.%.h.%.h.h.h.h.%.h.c.%.%.c.%.h.%.%.%.q.>.% . I h.$.%.%.%.%.%.$.$.$.$.$.%.#.$.$.$.$.#.#.#.$.$.$.#.#.#.#.#.#.O.$.O.#.O.$.i.1.",
"+.=.h.h.%.h.h.%.h.h.%.h.h.h.h.h.h.%.h.h.h.%.%.h.%.%.%.%.%.%.%.%.%.%.%.%.%.q.>.% . I k.$.%.%.$.h.$.%.$.%.$.$.#.%.$.#.#.%.#.%.#.#.O.$.#.#.#.#.#.d.O.O.O.O.| O.i.1.",
"*.@.h.h.h.%.h.h.%.h.h.h.h.@.h.h.%.%.h.@.$.h.h.h.%.h.h.%.$.h.$.h.%.%.%.%.$.q.>.% . I z.@.$.h.$.$.$.$.$.$.$.$.$.$.$.#.#.#.d.+.$.#.#.#.d.#.#.#.#.O.#...#.O.O.O.i.>.",
"*.@.h.%.%.h.h.@.h.h.%.%.%.h.%.h.%.h.$.h.h.h.$.%.$.@.$.h.h.$.%.$.%.$.%.%.d.q.>.% . I z.+.$.$.$.$.$.$.$.$.$.$.$.$.#.#.#.$.#.+.#.#.#.#.O.#.O.O.#.O.O.#.O.O...#.i.1.",
"+.=.h.h.h.@.%.h.h.@.%.h.h.h.%.%.h.$.h.$.h.$.$.h.h.h.$.$.$.$.%.@.%.%.%.%.+.q.>.% . L z.&.$.$.$.$.$.$.$.$.#.#.#.#.#.#.#.#.#.#.O...O.O.#.O.O.O...O.O...| O.O.O.i.1.",
"*.@.h.@.%.h.%.%.%.%.%.$.$.%.%.%.$.h.%.%.$.$.h.$.$.$.$.h.h.h.$.$.%.$.$.$.%.q.>.% . I =.&.$.$.$.@.$.$.$.#.$.#.#.$.#.#.#.#.#.#.#.#.#.O.O.O.O.#.O...#.p.O.O.O...i.1.",
"*.+.%.h.$.$.h.$.%.h.%.h.%.%.%.%.%.%.h.$.$.h.h.@.h.$.h.$.$.$.%.$.$.%.$.%.#.4.>.% . I =.+.&.#.#.&.#.#.&.#.#.#.#.#.#.#.O.O.+.+.O.O.#.p.O.O.O.p.#.O.O.O.| O..... .>.",
"*.@.%.%.h.@.@.h.%.%.$.%.%.%.%.$.%.$.$.@.$.@.$.$.$.$.$.$.$.$.$.%.%.$.$.$.#.4.>.% . L h.&.#.&.#.&.&.#.#.#.#.#.#.#.O.#.#.#.O.O.O.O.#.O.O.O.O.| O.O...O.O.| .... .>.",
"*.=.%.%.h.$.$.$.$.%.$.%.&.%.%.%.%.$.%.h.$.$.$.h.$.$.%.@.$.$.$.$.$.$.$.#.#.q.>.% . L z.&.#.#.#.#.#.#.#.#.#.#.o.&.#.O.O.O.O.O.p.O.O...| O.O.#.....O.| ..O...O. .>.",
"*.+.%.$.$.@.h.$.%.%.%.%.$.&.%.$.@.$.$.$.$.$.$.$.$.$.$.$.$.&.$.$.#.$.$.#.#.q.>.% . I @.&.#.#.#.#.#.O.O.#.O.#.O.#.+.O.O.O.O.p.O.O.O.O.O.O...| ....| O.| ...... .>.",
"*.+.@.@.&.%.#.%.%.&.$.%.$.$.%.$.$.$.$.$.$.$.$.&.$.$.$.@.#.$.$.#.&.#.#.#.&.q.>.% . L @.&.O.#.#.O.O.#.O.O.O.O.O.O.O.O.O.O.O.| O.O...O...O.O.| | | O.| O.| ....i.>.",
"*.+.%.&.%.#.%.#.#.%.$.&.$.$.&.$.$.$.$.$.$.$.$.#.$.@.$.#.#.#.#.#.#.#.#.&.O.4.:.* . L =.O.#.#.O.#.#.O.O.#.O.#.O.O.O.O.| O.O.O.O.| ....O.| O.| | O.| | | | | } 4.>.",
"*.+.&.%.&.%.$.&.&.$.$.$.$.&.$.$.$.&.$.&.&.&.#.&.#.#.@.#.#.#.@.#.#.#.#.#.O.0.>.% . L =.&.O.O.O.O.O.O...#.#...O...O.O.O.O.| O.| O.| O.O.| O.| | | | | | | | |  .>.",
"*.+.&.&.%.#.&.&.&.$.&.&.&.&.%.$.&.&.#.&.#.#.#.&.&.#.#.#.#.#.#.#.#.#.O.#.O.q.>.* . L @.O.O.#.O.O.O.O.O.O.#.| O.#.O.O.O.O.O.| O.| O.| | | | | | | | | | | | } ` >.",
"*.*.$.#.#.#.+.#.#.#.+.&.#.#.#.#.#.#.#.O.&.#.#.#.O.#.#.#.O.O.o.&.#.#.O.#.#.0.>.< X L @.&.O.O.O.O.o.O...O.| O...|  .......| | | | | | ........| | | | | | | | 4.>.",
"} +.@.=.@.%.%.%.&.%.%.@.&.%.@.@.%.%.&.%.+.%.+.%.&.%.&.+.@.@.&.&.$.$.&.&.&.q.1.2 X I =.+.+.+.#.+.O.&.+.&.#.#.+.#.O.#.+.O.#.#.+.+.O.#.O.O...O.O.O.O.O.O.O.....i.7.",
"Y Y Y Y Y Y Y Y Y Y Y Y Y Y Y Y Y Y T Y Y Y Y Y Y Y Y Y Y Y T Y Y Y Y Y Y R R       P L P L L L L P P L P P P P P P P P P P P P P P P P P P P P P P P P P P R A ",
"  X , = , , , , , , , , , , , , , , , , , , , , , , , , , , , , , , , , 2 h           , 2 2 2 2 2 2 2 2 2 2 2 2 2 2 2 2 2 2 2 2 2 2 2 2 2 2 2 4 : 2 2 2 2 2 s   "
};
