/* XPM */
static char *result[] = {
/* columns rows colors chars-per-pixel */
"50 50 223 2 ",
"   c black",
".  c #080000",
"X  c #1E0200",
"o  c #140000",
"O  c #220000",
"+  c #2B1600",
"@  c #2A1A00",
"#  c #261700",
"$  c #351700",
"%  c #340500",
"&  c #332301",
"*  c #382702",
"=  c #432C01",
"-  c #5E2000",
";  c #473101",
":  c #4B3501",
">  c #4E3800",
",  c #4D370E",
"<  c #523B01",
"1  c #5C3800",
"2  c #443613",
"3  c #5D4300",
"4  c #624501",
"5  c #654A01",
"6  c #694C01",
"7  c #634809",
"8  c #61470E",
"9  c #6C5300",
"0  c #735502",
"q  c #7B5B01",
"w  c #7A5A04",
"e  c #805F01",
"r  c #856300",
"t  c #886A04",
"y  c #916D02",
"u  c #957401",
"i  c #9B7600",
"p  c #9F7A01",
"a  c #9E7E0A",
"s  c #937508",
"d  c #8F760C",
"f  c #A37F01",
"g  c #AB8500",
"h  c #AC8806",
"j  c #A78309",
"k  c #B28700",
"l  c #B28A02",
"z  c #BB8D00",
"x  c #BC9302",
"c  c #A18212",
"v  c #B99916",
"b  c #9A913F",
"n  c #96852D",
"m  c #B5A43F",
"M  c #C68D00",
"N  c #C88E00",
"B  c #C39402",
"V  c #CC9300",
"C  c #CD9B01",
"Z  c #C59B0B",
"A  c #CB9C0B",
"S  c #C59A04",
"D  c #D19D00",
"F  c #D09C0C",
"G  c #CA9815",
"H  c #D09E17",
"J  c #CBA105",
"K  c #CBA209",
"L  c #D4A202",
"P  c #D9A502",
"I  c #DCAB06",
"U  c #D3A90D",
"Y  c #DCAC0B",
"T  c #D5A808",
"R  c #DDB10F",
"E  c #C8A414",
"W  c #D4AC14",
"Q  c #D8AB15",
"!  c #DCB41A",
"~  c #D4BA1A",
"^  c #E3AF04",
"/  c #E1AF0A",
"(  c #E5B302",
")  c #E9B500",
"_  c #EBBB01",
"`  c #E3B30B",
"'  c #E8B70E",
"]  c #EBBB0D",
"[  c #E5BB05",
"{  c #F2B900",
"}  c #F0BF0D",
"|  c #E3B412",
" . c #E6B914",
".. c #EBBC12",
"X. c #E6BA1B",
"o. c #E9BB1C",
"O. c #CB9823",
"+. c #D09C21",
"@. c #D8B726",
"#. c #CBB534",
"$. c #D7B83A",
"%. c #E2BD24",
"&. c #ECBB22",
"*. c #E8BB29",
"=. c #E7BC32",
"-. c #F3C400",
";. c #FDCB00",
":. c #F4C20E",
">. c #FAC50B",
",. c #FACC05",
"<. c #EEC014",
"1. c #ECC21A",
"2. c #E6CA10",
"3. c #F2C415",
"4. c #F7CC16",
"5. c #FBCB14",
"6. c #F3C61A",
"7. c #F6CA1B",
"8. c #FBCC1C",
"9. c #F9C612",
"0. c #FFD21D",
"q. c #F9D218",
"w. c #E9C205",
"e. c #FFE500",
"r. c #FFE210",
"t. c #EDC424",
"y. c #EDCB2B",
"u. c #EBC426",
"i. c #F3C524",
"p. c #F4CA22",
"a. c #FACE23",
"s. c #F5CB2A",
"d. c #FED323",
"f. c #FEDB24",
"g. c #FDD52B",
"h. c #FEDB2C",
"j. c #F6D129",
"k. c #EDC333",
"l. c #E6C835",
"z. c #F2CC36",
"x. c #EDD034",
"c. c #F4D532",
"v. c #FED731",
"b. c #F6D834",
"n. c #FEDC34",
"m. c #F3D43B",
"M. c #FEDE3B",
"N. c #FBD73A",
"B. c #FFE326",
"V. c #FEE22B",
"C. c #FFE82E",
"Z. c #FEE334",
"A. c #FFE934",
"S. c #FEE13C",
"D. c #FFEB3B",
"F. c #FFF13B",
"G. c #BDAB42",
"H. c #C4B242",
"J. c #C2B74C",
"K. c #D8B563",
"L. c #D1CA5A",
"P. c #DFD358",
"I. c #ECCA46",
"U. c #F0CD4C",
"Y. c #EBD246",
"T. c #F5DB43",
"R. c #F6D946",
"E. c #E9D959",
"W. c #F6DB55",
"Q. c #F6D657",
"!. c #F5CD5E",
"~. c #F7E144",
"^. c #FEE443",
"/. c #FFEB44",
"(. c #FDE54B",
"). c #FFE94C",
"_. c #F6E24A",
"`. c #FFF845",
"'. c #FFF04E",
"]. c #FEE454",
"[. c #FEEB53",
"{. c #F9E35C",
"}. c #FDED5B",
"|. c #F4E65C",
" X c #FFF35C",
".X c #DAD461",
"XX c #EEC960",
"oX c #F4D768",
"OX c #F4D876",
"+X c #E7CA70",
"@X c #FDED62",
"#X c #F3EE6D",
"$X c #FBE667",
"%X c #FDF166",
"&X c #FBF26B",
"*X c #FBF569",
"=X c #FEEB73",
"-X c #F9EF77",
";X c #F7F472",
":X c #F9F572",
">X c #FEFB74",
",X c #FFFB7D",
"<X c #E8E161",
"1X c #F6DA9A",
"2X c #F7DE94",
"3X c #F0D888",
"4X c #FCEB83",
"5X c #F8E484",
"6X c #FEEF96",
"7X c #FFF295",
"8X c #F9E9AA",
"9X c #FFF4A3",
"0X c #FFFCAC",
"qX c #FEF3AD",
"wX c #F9E3B4",
"eX c #FFF7B7",
"rX c #FFF9C3",
"tX c #FDF3CE",
"yX c #FFFDDD",
"uX c #FEF6D3",
"iX c #FFFEED",
"pX c #FFFFE1",
"aX c None",
/* pixels */
"aXaXaXaXaXaXaXaXaXaXaXaXaXaXaXaXaXaXaXaXaXaXaXaXaXaXaXaXaXaXaXaXaXaXaXaXaXaXaXaXaXaXaXaXaXaXaXaXaXaX",
"aXaXaXaXaXaXaXaXaXaXaXaXaXaXaXaXaXaXaXaXaXaXaXaXaXaXaXaXaXaXaXaXaXaXaXaXaXaXaXaXaXaXaXaXaXaXaXaXaXaX",
"aXaXaXaXaXaXaXaXaXaXaXaXaXaXaXaXaXaXaXaXaXaXaXaXaXaXaXaXaXaXaXaXaXaXaXaXaXaXaXaXaXaXaXaXaXaXaXaXaXaX",
"aXaXaXaXaXaXaXaXaXaXaXaXaXaXaXaXaXaXaXD./.[. X%X=X-X3X+XP D aXaXaXaXaXaXaXaXaXaXaXaXaXaXaXaXaXaXaXaX",
"aXaXaXaXaXaXaXaXaXaXaXaXaXaXaXaXaXZ.`.`.`././././. X,X0XeXQ.{ &.' aXaXaXaXaXaXaXaXaXaXaXaXaXaXaXaXaX",
"aXaXaXaXaXaXaXaXaXaXaXaXaXaXaXh.F.D.S.S.^.^.^.(././.D./.7XuX1X{ &.6.) aXaXaXaXaXaXaXaXaXaXaXaXaXaXaX",
"aXaXaXaXaXaXaXaXaXaXaXaXaXaXg.D.S.Z.M.S.D././.`./.(.).).B.%XuXwX{ &.>.( aXaXaXaXaXaXaXaXaXaXaXaXaXaX",
"aXaXaXaXaXaXaXaXaXaXaXaXaXg.A.n.n.n.D.S.x.y.y.b.S.`.).^.[.Z.(.pXwX{ *.} >.aXaXaXaXaXaXaXaXaXaXaXaXaX",
"aXaXaXaXaXaXaXaXaXaXaXaXa.A.h.h.Z.v.E d n G.H.H.#.@.~.).^.).C.[.iX1X{ =.} 9.aXaXaXaXaXaXaXaXaXaXaXaX",
"aXaXaXaXaXaXaXaXaXaXaX6.C.h.h.Z.@.0 b .X#X>X;X:X#X.X#.l././.[.e.4XiX!.-.&.3...aXaXaXaXaXaXaXaXaXaXaX",
"aXaXaXaXaXaXaXaXaXaXaXg.f.g.Z.v , L.>X>X;X;X:X:X;X>X;XL.l.^.^.[.e.eXuX-.p.&.5...aXaXaXaXaXaXaXaXaXaX",
"aXaXaXaXaXaXaXaXaXaXp.B.d.h.v * <X>X#X:X>X>X>X>X>X;X;X,XP.l./.(.^.Z.pX2X-.s.9.5.aXaXaXaXaXaXaXaXaXaX",
"aXaXaXaXaXaXaXaXaXaXf.d.f.W $ E.*X@X*X<XJ.J.J.G.E.:X;X:X>X.Xx./.].e.7XtX,.i.1.3.1.aXaXaXaXaXaXaXaXaX",
"aXaXaXaXaXaXaXaXaXp.B.d.i.1 #.'.).). XY.- 4 ~ 2.Y.:X:X:X;X;XP.b.^.^.V.rXOX-.z.t.0.aXaXaXaXaXaXaXaXaX",
"aXaXaXaXaXaXaXaXaX8.d.d.h d Z.M.S.^.).|.C W D.D.|.#X&X:X&X:X#Xx.S.^.r.6XqX-.k.t.6.X.aXaXaXaXaXaXaXaX",
"aXaXaXaXaXaXaXaXaXB.0.6.q u.h.h.n.Z.^.|.I U Z.D._.@X&X&X&X#X>X<Xb.^.Z.].qXU.1.k.X.1.aXaXaXaXaXaXaXaX",
"aXaXaXaXaXaXaXaX7.f.d.Z f f.d.f.h.h.S.{.L U Z.A.~.@X@X*X*X#X*X#XY.Z.S.V.7XOX[ k.! 7.! aXaXaXaXaXaXaX",
"aXaXaXaXaXaXaXaX8.0.d.i W d.a.d.g.h.n.W.J U A.A.~.}.}.}.@X@X@X*XE.v.S.B.-X5X[ *.! 1.W aXaXaXaXaXaXaX",
"aXaXaXaXaXaXaXaXf.d.1.p i.d.a.0.d.0.S.W.C U A.A.S.[.[. X}.}.@X%X|.b.S.h.].5X@.Y W T T aXaXaXaXaXaXaX",
"aXaXaXaXaXaXaXi.V.d.! x 0.d.a.0.d.0.n.W.C K V.C.b.).).[.}.}.}. X}.m.n.n.^.=X$.L E J T aXaXaXaXaXaXaX",
"aXaXaXaXaXaXaXs.V.f.Y W f.d.d.d.h.0.n.W.C U V.A.b.^.^.(.).[.[.}.}.T.h.n.n.$X$.x Z x S h aXaXaXaXaXaX",
"aXaXaXaXaXaXaXj.h.g.` | d.d.d.g.d.d.S.R.C U V.C.v.S.^.^.(.(.).).[.T.h.M.n.[.$.z x l x h aXaXaXaXaXaX",
"aXaXaXaXaXaXaXa.h.d...1.d.d.d.d.h.g.S.m.B U V.C.c.Z.M.S.^.^.(.).).T.g.n.n.S.@.h l g g j aXaXaXaXaXaX",
"aXaXaXaXaXaXaXa.f.g.p.6.d.8.d.d.d.g.n.m.B U V.B.g.M.S.S.T.^.^.^.).T.v.n.n.h.E i j u p y aXaXaXaXaXaX",
"aXaXaXaXaXaXaXa.0.n.b.5.8.8.8.0.0.d.n.x.B K f.C.b.^.S.M.S.S.^.T.^.N.v.n.n.g.x e r r r w aXaXaXaXaXaX",
"aXaXaXaXaXaXaXs.>.N.].>.3.3.9.6.8.8.g.y.x K V.B.c.M.T.M.M.M.M.S.^.M.b.n.Z.j.g 3 5 5 5 8 aXaXaXaXaXaX",
"aXaXaXaXaXaXaX6.;.N.}.8.] ..<.3.3.3.d.y.z A h.V.g.M.M.M.T.M.M.M.S.N.n.n.M.u.y * > : : : aXaXaXaXaXaX",
"aXaXaXaXaXaXaXt.;.z.=Xg.) ..] ] } 3.0.u.k K f.V.c.n.n.M.S.M.M.S.M.N.n.n.S.%.q ; < : < > aXaXaXaXaXaX",
"aXaXaXaXaXaXaXo.;.i.-XR.) | ' ] ..] 6.1.k K f.B.a.g.v.v.n.M.M.M.M.v.M.M.S.@.3 * ; ; : ; aXaXaXaXaXaX",
"aXaXaXaXaXaXaXX.5.{ 4XoX^ | ( ` ] ] <.o.g J f.h.7.8.a.d.g.v.v.n.M.v.v.M.S.v % * & & * & aXaXaXaXaXaX",
"aXaXaXaXaXaXaXaXa.{ 5X4X( Y / / ` ` ....k K f.B.1.6.8.8.a.d.g.v.v.g.n.n.n.c   & # # + aXaXaXaXaXaXaX",
"aXaXaXaXaXaXaXaXi._ OX7X] D I I / I '  .k J d.f.1.3.3.3.6.8.p.g.d.g.g.n.c.w O * @ @ @ aXaXaXaXaXaXaX",
"aXaXaXaXaXaXaXaXo.-.=.qXQ.D Q D T T / | k A f.f.1.] <.3.3.6.4.8.8.d.g.h.u.= < > : > : aXaXaXaXaXaXaX",
"aXaXaXaXaXaXaXaX( s.) 8X6XI +.D L D Y R k J 0.f.1.` ....<.1.3.7.8.d.d.h.v O 3 > < < , aXaXaXaXaXaXaX",
"aXaXaXaXaXaXaXaXaXa._ XXrXk.V H D C L ! f Z d.f.1.' ] ....<.<.4.8.8.d.a.r $ > : : > aXaXaXaXaXaXaXaX",
"aXaXaXaXaXaXaXaXaX` 6.) wX9XP O.D C F ( M J 0.B.1.I ` ' ] ..<.5.8.8.0.! + < > > < < aXaXaXaXaXaXaXaX",
"aXaXaXaXaXaXaXaXaXY 8._ I.rXoXV O.A N OX=X(.^.D.u.P ` ` ]  .3.4.6.6.0.a X 3 < 3 5 3 aXaXaXaXaXaXaXaX",
"aXaXaXaXaXaXaXaXaXaX' &.( 3XeX_ N O.N K.+XXXQ.Q.u.L Y R ` ] 5.6.3.8. .= < 3 3 4 5 aXaXaXaXaXaXaXaXaX",
"aXaXaXaXaXaXaXaXaXaXU 9.&.( 8XqX[ N G M M V V C C U I P ' q.1.3.3.5.a X 5 3 3 5 7 aXaXaXaXaXaXaXaXaX",
"aXaXaXaXaXaXaXaXaXaXaX` ....( 2XqXI.N M Z G H A C C L  .q.<.3.1.8.W o 4 4 3 4 7 aXaXaXaXaXaXaXaXaXaX",
"aXaXaXaXaXaXaXaXaXaXaXaX>.....( OX6X$X=.C M M M C ~ u.q.3.<.1.3.1.6 = 6 3 3 5 aXaXaXaXaXaXaXaXaXaXaX",
"aXaXaXaXaXaXaXaXaXaXaXaXY >. .o.) =.oX=XoXQ.Y.U.m.j.6.<.<.<.<.4.s . 6 3 4 6 aXaXaXaXaXaXaXaXaXaXaXaX",
"aXaXaXaXaXaXaXaXaXaXaXaXaXY >...o.) ) ' z.z.z.s.<.] ] <.] <.:.j   6 3 3 6 8 aXaXaXaXaXaXaXaXaXaXaXaX",
"aXaXaXaXaXaXaXaXaXaXaXaXaXaXK >.] | ..] _ ) ) ) ] ....] 3.3.c   5 4 6 6 aXaXaXaXaXaXaXaXaXaXaXaXaXaX",
"aXaXaXaXaXaXaXaXaXaXaXaXaXaXaXZ ] :.] '  ....... .] 3.9.R q X 0 0 r 0 aXaXaXaXaXaXaXaXaXaXaXaXaXaXaX",
"aXaXaXaXaXaXaXaXaXaXaXaXaXaXaXaXaXZ ] :.} } ] } :.] R h 3 9 u y t aXaXaXaXaXaXaXaXaXaXaXaXaXaXaXaXaX",
"aXaXaXaXaXaXaXaXaXaXaXaXaXaXaXaXaXaXaXl B Z A Z h u 9 9 u j aXaXaXaXaXaXaXaXaXaXaXaXaXaXaXaXaXaXaXaX",
"aXaXaXaXaXaXaXaXaXaXaXaXaXaXaXaXaXaXaXaXaXaXaXaXaXaXaXaXaXaXaXaXaXaXaXaXaXaXaXaXaXaXaXaXaXaXaXaXaXaX",
"aXaXaXaXaXaXaXaXaXaXaXaXaXaXaXaXaXaXaXaXaXaXaXaXaXaXaXaXaXaXaXaXaXaXaXaXaXaXaXaXaXaXaXaXaXaXaXaXaXaX",
"aXaXaXaXaXaXaXaXaXaXaXaXaXaXaXaXaXaXaXaXaXaXaXaXaXaXaXaXaXaXaXaXaXaXaXaXaXaXaXaXaXaXaXaXaXaXaXaXaXaX"
};
