/* XPM */
static char *_7168_37129a360b6ce871857e26ab844af244f982de5b575033d3585f6c06197e5b99[] = {
/* columns rows colors chars-per-pixel */
"35 80 178 2 ",
"   c #780000",
".  c #7E1C00",
"X  c #6F220E",
"o  c #6F230F",
"O  c #6F2310",
"+  c #6E2311",
"@  c #6F2311",
"#  c #6F2312",
"$  c #6D2512",
"%  c #6F2613",
"&  c #6B2514",
"*  c #6C2716",
"=  c #62271A",
"-  c #662718",
";  c #702310",
":  c #722612",
">  c #732612",
",  c #732712",
"<  c #722613",
"1  c #742610",
"2  c #742611",
"3  c #742612",
"4  c #752612",
"5  c #752712",
"6  c #742713",
"7  c #752713",
"8  c #762712",
"9  c #772712",
"0  c #762713",
"q  c #712714",
"w  c #772812",
"e  c #772814",
"r  c #792812",
"t  c #792813",
"y  c #7A2812",
"u  c #7A2813",
"i  c #7A2913",
"p  c #7B2913",
"a  c #7C2912",
"s  c #7D2913",
"d  c #7E2912",
"f  c #792814",
"g  c #70281B",
"h  c #712F1B",
"j  c #7D2F18",
"k  c #72311E",
"l  c #712C20",
"z  c #822C0F",
"x  c #853016",
"c  c #813018",
"v  c #85321A",
"b  c #86331D",
"n  c #FC0000",
"m  c #FD0000",
"M  c #FE0000",
"N  c red",
"B  c #FF0001",
"V  c #FF0002",
"C  c #FF0003",
"Z  c #FF0004",
"A  c #FF0005",
"S  c #FF0006",
"D  c #FF0106",
"F  c #FF0007",
"G  c #FF0107",
"H  c #FF080D",
"J  c #FF0D11",
"K  c #FB1313",
"L  c #FF1115",
"P  c #FF1518",
"I  c #FF1619",
"U  c #FF1719",
"Y  c #FE171A",
"T  c #FF191B",
"R  c #FD191C",
"E  c #FF181C",
"W  c #FF191C",
"Q  c #FF1B1E",
"!  c #FE1C1D",
"~  c #FF1C1E",
"^  c #FE1C1F",
"/  c #FF1D1F",
"(  c #FF1F22",
")  c #FE2225",
"_  c #FE2A2B",
"`  c #FE2A2C",
"'  c #FF2B2C",
"]  c #FF2F2F",
"[  c #FF3738",
"{  c #FD3C3D",
"}  c #835D1B",
"|  c #AE7800",
" . c #B37E19",
".. c #A67732",
"X. c #B3664B",
"o. c #FF484A",
"O. c #FE494A",
"+. c #FC4C4D",
"@. c #FF5253",
"#. c #FF5557",
"$. c #D3636B",
"%. c #FC696A",
"&. c #FC6B6C",
"*. c #FA7979",
"=. c #BF8916",
"-. c #BC881C",
";. c #B58226",
":. c #B7862D",
">. c #CD9500",
",. c #C38815",
"<. c #C19017",
"1. c #DDAF00",
"2. c #EBB400",
"3. c #D4A52A",
"4. c #EAC430",
"5. c #C28C7F",
"6. c #F3CA43",
"7. c #F8E155",
"8. c #F0D478",
"9. c #FDE36C",
"0. c #EA7F83",
"q. c #EB7F83",
"w. c #F17F83",
"e. c #8D9390",
"r. c #BC958A",
"t. c #AAB2B3",
"y. c #ADB4B4",
"u. c #AEB4B5",
"i. c #AEB5B5",
"p. c #AFB5B5",
"a. c #B7B9B9",
"s. c #BBB9B9",
"d. c #BBBAB9",
"f. c #BBBABA",
"g. c #BBBABB",
"h. c #BBBBBB",
"j. c #BCBBBB",
"k. c #EB8083",
"l. c #E98084",
"z. c #F88588",
"x. c #FF8B8C",
"c. c #F98F90",
"v. c #FF8F90",
"b. c #F99494",
"n. c #FF9697",
"m. c #DAA9AC",
"M. c #FEA7A8",
"N. c #FBADAD",
"B. c #FAB1B1",
"V. c #FFB3B3",
"C. c #FBB6B6",
"Z. c #F9BABA",
"A. c #FABFBF",
"S. c #FFBDBD",
"D. c #FBEF94",
"F. c #FFFFB4",
"G. c #BCBFC0",
"H. c #FFC5C6",
"J. c #FCC6C6",
"K. c #FCC9C9",
"L. c #FEC8C8",
"P. c #FECACA",
"I. c #FFCCCD",
"U. c #F9D3D3",
"Y. c #FFD0D1",
"T. c #F9DBDB",
"R. c #FFDFDF",
"E. c #FFE0E1",
"W. c #FBEBEC",
"Q. c #FEECEC",
"!. c #FFEDED",
"~. c #FBF0F0",
"^. c #FCF9F9",
"/. c #FBFDFD",
"(. c #FDFDFD",
"). c #FEFFFF",
"_. c white",
"`. c None",
/* pixels */
"`.`.`.`.`.`.`.`.`.`.`.`.`.`.`.1.9.D.`.`.`.`.`.`.`.`.`.`.`.`.`.`.`.`.`.",
"`.`.`.`.`.`.`.`.`.`.`.`.`.`.;.2.8.F.7.`.`.`.`.`.`.`.`.`.`.`.`.`.`.`.`.",
"`.`.`.`.`.`.`.`.`.`.`.`.`.`. .=.3.6.4.`.`.`.`.`.`.`.`.`.`.`.`.`.`.`.`.",
"`.`.`.`.`.`.`.`.`.`.`.`.`.`.-.,.| >.<.`.`.`.`.`.`.`.`.`.`.`.`.`.`.`.`.",
"`.`.`.`.`.`.`.`.`.`.`.`.`.`.`.:...} `.`.`.`.`.`.`.`.`.`.`.`.`.`.`.`.`.",
"`.`.`.`.`.`.`.`.`.`.`.`.`.`.`.`.e.$.N K F N ] N N N ' ! N G Z S `.`.`.",
"`.`.`.`.`.`.`.`.`.`.`.`.`.`.`.`.t.z.N E A ~ N N @.[ N N L V S A `.`.`.",
"`.`.`.`.`.`.`.`.`.`.`.`.`.`.`.`.p.l.N R I N %.T.(.~.B.M N H Z A `.`.`.",
"`.`.`.`.`.`.`.`.`.`.`.`.`.`.`.`.y.q.N ( N +.W.S.!.H.E.A.N T B D `.`.`.",
"`.`.`.`.`.`.`.`.`.`.`.`.`.`.`.`.i.0.N _ N Z.Q.N #.N x.^.{ N J C `.`.`.",
"`.`.`.`.`.`.`.`.`.`.`.`.`.`.`.`.u.0.N ` N P.v.n.Y.I.o.L.&.N P B `.`.`.",
"`.`.`.`.`.`.`.`.`.`.`.`.`.`.`.`.u.0.N ) N c.M.R._._.V.C.O.N J C `.`.`.",
"`.`.`.`.`.`.`.`.`.`.`.`.`.`.`.`.u.k.N ^ N m U.)._._./.b.N / N D `.`.`.",
"`.`.`.`.`.`.`.`.`.`.`.`.`.`.`.`.u.0.N Y I N n N.K.J.*.M U V D A `.`.`.",
"`.`.`.`.`.`.`.`.`.`.`.`.`.`.`.`.y.w.N W B Q N N N N N ( A A A A `.`.`.",
"`.`.`.`.`.`.`.`.`.`.`.`.`.`.`.`.a.m.`.`.`.`.`.`.`.`.`.`.`.`.`.`.`.`.`.",
"`.`.`.`.`.`.`.`.`.`.`.`.`.`.`.`.j.`.`.`.`.`.`.`.`.`.`.`.`.`.`.`.`.`.`.",
"`.`.`.`.`.`.`.`.`.`.`.`.`.`.`.`.g.`.`.`.`.`.`.`.`.`.`.`.`.`.`.`.`.`.`.",
"`.`.`.`.`.`.`.`.`.`.`.`.`.`.`.`.g.`.`.`.`.`.`.`.`.`.`.`.`.`.`.`.`.`.`.",
"`.`.`.`.`.`.`.`.`.`.`.`.`.`.`.`.f.`.`.`.`.`.`.`.`.`.`.`.`.`.`.`.`.`.`.",
"`.`.`.`.`.`.`.`.`.`.`.`.`.`.`.`.f.`.`.`.`.`.`.`.`.`.`.`.`.`.`.`.`.`.`.",
"`.`.`.`.`.`.`.`.`.`.`.`.`.`.`.`.f.`.`.`.`.`.`.`.`.`.`.`.`.`.`.`.`.`.`.",
"`.`.`.`.`.`.`.`.`.`.`.`.`.`.`.`.f.`.`.`.`.`.`.`.`.`.`.`.`.`.`.`.`.`.`.",
"`.`.`.`.`.`.`.`.`.`.`.`.`.`.`.`.d.`.`.`.`.`.`.`.`.`.`.`.`.`.`.`.`.`.`.",
"`.`.`.`.`.`.`.`.`.`.`.`.`.`.`.`.f.`.`.`.`.`.`.`.`.`.`.`.`.`.`.`.`.`.`.",
"`.`.`.`.`.`.`.`.`.`.`.`.`.`.`.`.h.`.`.`.`.`.`.`.`.`.`.`.`.`.`.`.`.`.`.",
"`.`.`.`.`.`.`.`.`.`.`.`.`.`.`.`.g.`.`.`.`.`.`.`.`.`.`.`.`.`.`.`.`.`.`.",
"`.`.`.`.`.`.`.`.`.`.`.`.`.`.`.`.g.`.`.`.`.`.`.`.`.`.`.`.`.`.`.`.`.`.`.",
"`.`.`.`.`.`.`.`.`.`.`.`.`.`.`.`.g.`.`.`.`.`.`.`.`.`.`.`.`.`.`.`.`.`.`.",
"`.`.`.`.`.`.`.`.`.`.`.`.`.`.`.`.f.`.`.`.`.`.`.`.`.`.`.`.`.`.`.`.`.`.`.",
"`.`.`.`.`.`.`.`.`.`.`.`.`.`.`.`.f.`.`.`.`.`.`.`.`.`.`.`.`.`.`.`.`.`.`.",
"`.`.`.`.`.`.`.`.`.`.`.`.`.`.`.`.f.`.`.`.`.`.`.`.`.`.`.`.`.`.`.`.`.`.`.",
"`.`.`.`.`.`.`.`.`.`.`.`.`.`.`.`.f.`.`.`.`.`.`.`.`.`.`.`.`.`.`.`.`.`.`.",
"`.`.`.`.`.`.`.`.`.`.`.`.`.`.`.`.f.`.`.`.`.`.`.`.`.`.`.`.`.`.`.`.`.`.`.",
"`.`.`.`.`.`.`.`.`.`.`.`.`.`.`.`.f.`.`.`.`.`.`.`.`.`.`.`.`.`.`.`.`.`.`.",
"`.`.`.`.`.`.`.`.`.`.`.`.`.`.`.`.g.`.`.`.`.`.`.`.`.`.`.`.`.`.`.`.`.`.`.",
"`.`.`.`.`.`.`.`.`.`.`.`.`.`.`.`.g.`.`.`.`.`.`.`.`.`.`.`.`.`.`.`.`.`.`.",
"`.`.`.`.`.`.`.`.`.`.`.`.`.`.`.`.g.`.`.`.`.`.`.`.`.`.`.`.`.`.`.`.`.`.`.",
"`.`.`.`.`.`.`.`.`.`.`.`.`.`.`.`.g.`.`.`.`.`.`.`.`.`.`.`.`.`.`.`.`.`.`.",
"`.`.`.`.`.`.`.`.`.`.`.`.`.`.`.`.g.`.`.`.`.`.`.`.`.`.`.`.`.`.`.`.`.`.`.",
"`.`.`.`.`.`.`.`.`.`.`.`.`.`.`.`.g.`.`.`.`.`.`.`.`.`.`.`.`.`.`.`.`.`.`.",
"`.`.`.`.`.`.`.`.`.`.`.`.`.`.`.`.f.`.`.`.`.`.`.`.`.`.`.`.`.`.`.`.`.`.`.",
"`.`.`.`.`.`.`.`.`.`.`.`.`.`.`.`.f.`.`.`.`.`.`.`.`.`.`.`.`.`.`.`.`.`.`.",
"`.`.`.`.`.`.`.`.`.`.`.`.`.`.`.`.f.`.`.`.`.`.`.`.`.`.`.`.`.`.`.`.`.`.`.",
"`.`.`.`.`.`.`.`.`.`.`.`.`.`.`.`.h.`.`.`.`.`.`.`.`.`.`.`.`.`.`.`.`.`.`.",
"`.`.`.`.`.`.`.`.`.`.`.`.`.`.`.`.h.`.`.`.`.`.`.`.`.`.`.`.`.`.`.`.`.`.`.",
"`.`.`.`.`.`.`.`.`.`.`.`.`.`.`.`.g.`.`.`.`.`.`.`.`.`.`.`.`.`.`.`.`.`.`.",
"`.`.`.`.`.`.`.`.`.`.`.`.`.`.`.`.g.`.`.`.`.`.`.`.`.`.`.`.`.`.`.`.`.`.`.",
"`.`.`.`.`.`.`.`.`.`.`.`.`.`.`.`.g.`.`.`.`.`.`.`.`.`.`.`.`.`.`.`.`.`.`.",
"`.`.`.`.`.`.`.`.`.`.`.`.`.`.`.`.g.`.`.`.`.`.`.`.`.`.`.`.`.`.`.`.`.`.`.",
"`.`.`.`.`.`.`.`.`.`.`.`.`.`.`.`.g.`.`.`.`.`.`.`.`.`.`.`.`.`.`.`.`.`.`.",
"`.`.`.`.`.`.`.`.`.`.`.`.`.`.`.`.f.`.`.`.`.`.`.`.`.`.`.`.`.`.`.`.`.`.`.",
"`.`.`.`.`.`.`.`.`.`.`.`.`.`.`.`.f.`.`.`.`.`.`.`.`.`.`.`.`.`.`.`.`.`.`.",
"`.`.`.`.`.`.`.`.`.`.`.`.`.`.`.`.f.`.`.`.`.`.`.`.`.`.`.`.`.`.`.`.`.`.`.",
"`.`.`.`.`.`.`.`.`.`.`.`.`.`.`.`.f.`.`.`.`.`.`.`.`.`.`.`.`.`.`.`.`.`.`.",
"`.`.`.`.`.`.`.`.`.`.`.`.`.`.`.`.f.`.`.`.`.`.`.`.`.`.`.`.`.`.`.`.`.`.`.",
"`.`.`.`.`.`.`.`.`.`.`.`.`.`.`.`.d.`.`.`.`.`.`.`.`.`.`.`.`.`.`.`.`.`.`.",
"`.`.`.`.`.`.`.`.`.`.`.`.`.`.`.`.f.`.`.`.`.`.`.`.`.`.`.`.`.`.`.`.`.`.`.",
"`.`.`.`.`.`.`.`.`.`.`.`.`.`.`.`.h.`.`.`.`.`.`.`.`.`.`.`.`.`.`.`.`.`.`.",
"`.`.`.`.`.`.`.`.`.`.`.`.`.`.`.`.g.`.`.`.`.`.`.`.`.`.`.`.`.`.`.`.`.`.`.",
"`.`.`.`.`.`.`.`.`.`.`.`.`.`.`.`.g.`.`.`.`.`.`.`.`.`.`.`.`.`.`.`.`.`.`.",
"`.`.`.`.`.`.`.`.`.`.`.`.`.`.`.`.g.`.`.`.`.`.`.`.`.`.`.`.`.`.`.`.`.`.`.",
"`.`.`.`.`.`.`.`.`.`.`.`.`.`.`.`.f.`.`.`.`.`.`.`.`.`.`.`.`.`.`.`.`.`.`.",
"`.`.`.`.`.`.`.`.`.`.`.`.`.`.`.`.g.`.`.`.`.`.`.`.`.`.`.`.`.`.`.`.`.`.`.",
"`.`.`.`.`.`.`.`.`.`.`.`.`.`.`.`.s.`.`.`.`.`.`.`.`.`.`.`.`.`.`.`.`.`.`.",
"`.`.`.`.`.`.`.`.`.`.`.`.`.`.`.`.G.`.`.`.`.`.`.`.`.`.`.`.`.`.`.`.`.`.`.",
"`.`.`.`.`.`.`.`.`.`.`.`.`.`.`.X.r.5.`.`.`.`.`.`.`.`.`.`.`.`.`.`.`.`.`.",
"`.`.`.`.`.`.`.`.`.`.`.h j x v z   . b x c k `.`.`.`.`.`.`.`.`.`.`.`.`.",
"`.`.`.`.`.`.`.`.`.`.`.& + ; o # l g X O @ * `.`.`.`.`.`.`.`.`.`.`.`.`.",
"`.`.`.`.`.`.`.`.`.`.`.y 9 , 7 5 1 2 7 6 3 d `.`.`.`.`.`.`.`.`.`.`.`.`.",
"`.`.`.`.`.`.`.`.`.`.`.0 3 : > > > > > > : f `.`.`.`.`.`.`.`.`.`.`.`.`.",
"`.`.`.`.`.`.`.`.`.`.`.w 3 : > > > > > > > p `.`.`.`.`.`.`.`.`.`.`.`.`.",
"`.`.`.`.`.`.`.`.`.`.`.9 3 : > > > > > > : i `.`.`.`.`.`.`.`.`.`.`.`.`.",
"`.`.`.`.`.`.`.`.`.`.`.9 3 : > > > > > > : p `.`.`.`.`.`.`.`.`.`.`.`.`.",
"`.`.`.`.`.`.`.`.`.`.`.8 3 > > > > > > > : t `.`.`.`.`.`.`.`.`.`.`.`.`.",
"`.`.`.`.`.`.`.`.`.`.`.r 4 : > > > > > > > s `.`.`.`.`.`.`.`.`.`.`.`.`.",
"`.`.`.`.`.`.`.`.`.`.`.$ < 3 , , , > > 4 : % `.`.`.`.`.`.`.`.`.`.`.`.`.",
"`.`.`.`.`.`.`.`.`.`.`.- q a i i i u i p e = `.`.`.`.`.`.`.`.`.`.`.`.`.",
"`.`.`.`.`.`.`.`.`.`.`.`.`.`.`.`.`.`.`.`.`.`.`.`.`.`.`.`.`.`.`.`.`.`.`.",
"`.`.`.`.`.`.`.`.`.`.`.`.`.`.`.`.`.`.`.`.`.`.`.`.`.`.`.`.`.`.`.`.`.`.`."
};
