/* XPM */
static char *_650_f227ee8aa7f12ef94c8c02c19b0988641a1241688ead7d183c275f483b181e6e[] = {
/* columns rows colors chars-per-pixel */
"35 80 164 2 ",
"   c #1E1917",
".  c #2B1B0F",
"X  c #271B16",
"o  c #28211E",
"O  c #35251F",
"+  c #3B2F26",
"@  c #550003",
"#  c #441807",
"$  c #7B000B",
"%  c #641517",
"&  c #53341C",
"*  c #4B2D19",
"=  c #732612",
"-  c #462D28",
";  c #48322B",
":  c #503C38",
">  c #732E38",
",  c #77323D",
"<  c #732B26",
"1  c #2F305A",
"2  c #102866",
"3  c #3F527F",
"4  c #755A4A",
"5  c #7C634E",
"6  c #756C6E",
"7  c #696A74",
"8  c #777777",
"9  c #84000B",
"0  c #8A000A",
"q  c #96000E",
"w  c #9C000E",
"e  c #8B0414",
"r  c #9E0013",
"t  c #811D1E",
"y  c #A4000D",
"u  c #A90010",
"i  c #B40012",
"p  c #B90014",
"a  c #AE0727",
"s  c #BB1324",
"d  c #88222A",
"f  c #C60017",
"g  c #D4011D",
"h  c #FF0005",
"j  c #FF0409",
"k  c #FE0C11",
"l  c #FD1519",
"z  c #CC273C",
"x  c #C13236",
"c  c #FF2226",
"v  c #F32D32",
"b  c #FF3337",
"n  c #E7272B",
"m  c #93661A",
"M  c #AB7717",
"N  c #B07C19",
"B  c #885B35",
"V  c #926239",
"C  c #90325F",
"Z  c #8D306F",
"A  c #DF3B4F",
"S  c #FF3E42",
"D  c #9F6D49",
"F  c #8E725E",
"G  c #947959",
"H  c #AA6455",
"J  c #8B5E63",
"K  c #B26D60",
"L  c #A07D6A",
"P  c #B37B63",
"I  c #F74447",
"U  c #FF5053",
"Y  c #E75460",
"T  c #F46F72",
"R  c #F56568",
"E  c #BD891B",
"W  c #B78319",
"Q  c #C4931D",
"!  c #D5A522",
"~  c #DDB124",
"^  c #E6BE39",
"/  c #F6DD3A",
"(  c #EAC227",
")  c #998168",
"_  c #BA8369",
"`  c #C78F5C",
"'  c #CE925A",
"]  c #D59459",
"[  c #C3886E",
"{  c #CF9478",
"}  c #D99B63",
"|  c #EECF5F",
" . c #F4DA53",
".. c #FAF862",
"X. c #FCEB76",
"o. c #153698",
"O. c #0C3AA3",
"+. c #5D3D8D",
"@. c #1541AB",
"#. c #1342B3",
"$. c #1A49BA",
"%. c #234EB7",
"&. c #48588B",
"*. c #415B9E",
"=. c #574999",
"-. c #556F8B",
";. c #5A7AB7",
":. c #1D51CA",
">. c #2357CE",
",. c #2852C1",
"<. c #2258D3",
"1. c #2E69E3",
"2. c #2B66E2",
"3. c #346DE4",
"4. c #326EE8",
"5. c #3C77EF",
"6. c #3675ED",
"7. c #5B70C1",
"8. c #4573D3",
"9. c #4179F1",
"0. c #5281E3",
"q. c #8E8D8E",
"w. c #8F8F91",
"e. c #99999A",
"r. c #948B8B",
"t. c #B39488",
"y. c #8793B0",
"u. c #8A98A5",
"i. c #A09FA0",
"p. c #A5A5A6",
"a. c #A7A7A8",
"s. c #AAA9AA",
"d. c #BABABB",
"f. c #CE9E83",
"g. c #FB888A",
"h. c #F4989A",
"j. c #DBA789",
"k. c #E5B593",
"l. c #E49DA3",
"z. c #DEBFA0",
"x. c #F9A5A7",
"c. c #F1ADB4",
"v. c #F5B7B8",
"b. c #E9D6BD",
"n. c #F9E7BF",
"m. c #FBF1BE",
"M. c #BDBEC3",
"N. c #C0BEC0",
"B. c #CACACA",
"V. c #C7D0DD",
"C. c #DCDCDE",
"Z. c #D3D2D3",
"A. c #FDCCCD",
"S. c #E4D6D0",
"D. c #F7D4D5",
"F. c #F7DFE0",
"G. c #EEEEEE",
"H. c #E3E3E4",
"J. c #FCE2E2",
"K. c #FFEAEB",
"L. c #F5F4F5",
"P. c #FFFEFE",
"I. c #FFF0F0",
"U. c None",
/* pixels */
"U.U.U.U.U.U.U.U.U.U.U.U.U.U.U.~  .X.U.U.U.U.U.U.U.U.U.U.U.U.U.U.U.U.U.",
"U.U.U.U.U.U.U.U.U.U.U.U.U.U.N ! | m./ U.U.U.U.U.U.U.U.U.U.U.U.U.U.U.U.",
"U.U.U.U.U.U.U.U.U.U.U.U.U.U.W E ! ^ ( U.U.U.U.U.U.U.U.U.U.U.U.U.U.U.U.",
"U.U.U.U.U.U.U.U.U.U.U.U.U.U.Q M M E Q U.U.U.U.U.U.U.U.U.U.U.U.U.U.U.U.",
"U.U.U.U.U.U.U.U.U.U.U.U.U.U.U.W M m U.U.U.U.U.U.U.U.U.U.U.U.U.U.U.U.U.",
"U.U.U.U.U.U.U.U.U.U.U.U.U.U.U.U.8 n h h h h h h h h h h h h h h U.U.U.",
"U.U.U.U.U.U.U.U.U.U.U.U.U.U.U.U.a.v h h h h h h h h h h h h h h U.U.U.",
"U.U.U.U.U.U.U.U.U.U.U.U.U.U.U.U.a.v h h h h k F.P.P.g.h h h h h U.U.U.",
"U.U.U.U.U.U.U.U.U.U.U.U.U.U.U.U.a.v h h h h P.b P.x.J.h.h h h h U.U.U.",
"U.U.U.U.U.U.U.U.U.U.U.U.U.U.U.U.a.v h h h T I.h l k c P.h h h h U.U.U.",
"U.U.U.U.U.U.U.U.U.U.U.U.U.U.U.U.a.v h h h x.b g.g.P.h K.j h h h U.U.U.",
"U.U.U.U.U.U.U.U.U.U.U.U.U.U.U.U.a.v h h h I I P.P.P.U A.h h h h U.U.U.",
"U.U.U.U.U.U.U.U.U.U.U.U.U.U.U.U.a.v h h h h J.P.P.P.P.I h h h h U.U.U.",
"U.U.U.U.U.U.U.U.U.U.U.U.U.U.U.U.a.v h h h h h R D.v.l h h h h h U.U.U.",
"U.U.U.U.U.U.U.U.U.U.U.U.U.U.U.U.a.v h h h h h h h h h h h h h h U.U.U.",
"U.U.U.U.U.U.U.U.U.U.U.U.U.U.U.U.a.U.U.U.U.U.U.U.U.U.U.U.U.U.U.U.U.U.U.",
"U.U.U.U.U.U.U.U.U.U.U.U.U.U.U.U.a.U.U.U.U.U.U.U.U.U.U.U.U.U.U.U.U.U.U.",
"U.U.U.U.U.U.U.g c.Y U.U.U.U.U.U.a.U.U.U.U.U.U.U.U.U.U.U.U.U.U.U.U.U.U.",
"U.U.U.U.U.U.i g A l.s r U.U.U.U.a.U.U.U.U.U.U.U.U.U.U.U.U.U.U.U.U.U.U.",
"U.U.U.U.U.0 i f 0 t % 9 U.U.U.U.a.U.U.U.U.U.U.U.U.U.U.U.U.U.U.U.U.U.U.",
"U.U.U.U.L.0 q < L z.b.H U.U.U.r.M.H.U.U.U.U.U.U.U.U.U.U.U.U.U.U.U.U.U.",
"U.U.Z.G.d.d # j.u.V.k.n.U.U.U.7 p.G.U.U.U.U.U.U.U.U.U.U.U.U.U.U.U.U.U.",
"U.s.B.G.C.S.# _ ; : _ f.- U.6 7 w.C.U.U.U.U.U.U.U.U.U.U.U.U.U.U.U.U.U.",
"U.U.d.p.Z.L.t.P { 4 ; ; K 0 > 7 e.M.U.U.U.U.U.U.U.U.U.U.U.U.U.U.U.U.U.",
"U.U.e.p.d.z.z x _ z., k.0 q @ U.a.U.U.U.U.U.U.U.U.U.U.U.U.U.U.U.U.U.U.",
"U.U.U.U.w.J r f g =.7.Z Z ;.U.U.a.U.U.U.U.U.U.U.U.U.U.U.U.U.U.U.U.U.U.",
"U.U.U.U.U.U.e q p g a -...9.5.U.y.0.U.U.U.U.U.U.U.U.U.U.U.U.U.U.U.U.U.",
"U.U.U.U.U.U.U.U.e r f +.2.4.4.<.1.6.5.U.U.U.U.U.U.U.U.U.U.U.U.U.U.U.U.",
"U.U.U.U.U.U.U.U.U.$ y ,.<.<.:.:.<.1.4.8.' ] U.U.U.U.U.U.U.U.U.U.U.U.U.",
"U.U.U.U.U.U.U.U.U.U.o.O.#.$.#.O.O.$.>.3.` } U.U.U.U.U.U.U.U.U.U.U.U.U.",
"U.U.U.U.U.U.U.U.U.U.U.O.O.O.O.O.&.@.$.&.V B U.U.U.U.U.U.U.U.U.U.U.U.U.",
"U.U.U.U.U.U.U.U.U.U.U.U.%.$.%.2 w.*.1 & & U.U.U.U.U.U.U.U.U.U.U.U.U.U.",
"U.U.U.U.U.U.U.U.U.U.U.U.U.U.. X p.&.U.U.U.U.U.U.U.U.U.U.U.U.U.U.U.U.U.",
"U.U.U.U.U.U.U.U.U.U.U.U.U.U.G + p.4 B U.U.U.U.U.U.U.U.U.U.U.U.U.U.U.U.",
"U.U.U.U.U.U.U.U.U.U.U.U.U.U.U.5 p.F D U.U.U.U.U.U.U.U.U.U.U.U.U.U.U.U.",
"U.U.U.U.U.U.U.U.U.U.U.U.U.U.U.U.p.) * U.U.U.U.U.U.U.U.U.U.U.U.U.U.U.U.",
"U.U.U.U.U.U.U.U.U.U.U.U.U.U.U.U.p.U.U.U.U.U.U.U.U.U.U.U.U.U.U.U.U.U.U.",
"U.U.U.U.U.U.U.U.U.U.U.U.U.U.U.U.p.U.U.U.U.U.U.U.U.U.U.U.U.U.U.U.U.U.U.",
"U.U.U.U.U.U.U.U.U.U.U.U.U.U.U.U.a.U.U.U.U.U.U.U.U.U.U.U.U.U.U.U.U.U.U.",
"U.U.U.U.U.U.U.U.U.U.U.U.U.U.U.U.a.U.U.U.U.U.U.U.U.U.U.U.U.U.U.U.U.U.U.",
"U.U.U.U.U.U.U.U.U.U.U.U.U.U.U.U.p.U.U.U.U.U.U.U.U.U.U.U.U.U.U.U.U.U.U.",
"U.U.U.U.U.U.U.U.U.U.U.U.U.U.U.U.a.U.U.U.U.U.U.U.U.U.U.U.U.U.U.U.U.U.U.",
"U.U.U.U.U.U.U.U.U.U.U.U.U.U.U.U.p.U.U.U.U.U.U.U.U.U.U.U.U.U.U.U.U.U.U.",
"U.U.U.U.U.U.U.U.U.U.U.U.U.U.U.U.p.U.U.U.U.U.U.U.U.U.U.U.U.U.U.U.U.U.U.",
"U.U.U.U.U.U.U.U.U.U.U.U.U.U.U.U.a.U.U.U.U.U.U.U.U.U.U.U.U.U.U.U.U.U.U.",
"U.U.U.U.U.U.U.U.U.U.U.U.U.U.U.U.p.U.U.U.U.U.U.U.U.U.U.U.U.U.U.U.U.U.U.",
"U.U.U.U.U.U.U.U.U.U.U.U.U.U.U.U.p.U.U.U.U.U.U.U.U.U.U.U.U.U.U.U.U.U.U.",
"U.U.U.U.U.U.U.U.U.U.U.U.U.U.U.U.a.U.U.U.U.U.U.U.U.U.U.U.U.U.U.U.U.U.U.",
"U.U.U.U.U.U.U.U.U.U.U.U.U.U.U.U.p.U.U.U.U.U.U.U.U.U.U.U.U.U.U.U.U.U.U.",
"U.U.U.U.U.U.U.U.U.U.U.U.U.U.U.U.a.U.U.U.U.U.U.U.U.U.U.U.U.U.U.U.U.U.U.",
"U.U.U.U.U.U.U.U.U.U.U.U.U.U.U.U.a.U.U.U.U.U.U.U.U.U.U.U.U.U.U.U.U.U.U.",
"U.U.U.U.U.U.U.U.U.U.U.U.U.U.U.U.a.U.U.U.U.U.U.U.U.U.U.U.U.U.U.U.U.U.U.",
"U.U.U.U.U.U.U.U.U.U.U.U.U.U.U.U.a.U.U.U.U.U.U.U.U.U.U.U.U.U.U.U.U.U.U.",
"U.U.U.U.U.U.U.U.U.U.U.U.U.U.U.U.a.U.U.U.U.U.U.U.U.U.U.U.U.U.U.U.U.U.U.",
"U.U.U.U.U.U.U.U.U.U.U.U.U.U.U.U.p.U.U.U.U.U.U.U.U.U.U.U.U.U.U.U.U.U.U.",
"U.U.U.U.U.U.U.U.U.U.U.U.U.U.U.U.a.U.U.U.U.U.U.U.U.U.U.U.U.U.U.U.U.U.U.",
"U.U.U.U.U.U.U.U.U.U.U.U.U.U.U.U.p.U.U.U.U.U.U.U.U.U.U.U.U.U.U.U.U.U.U.",
"U.U.U.U.U.U.U.U.U.U.U.U.U.U.U.U.a.U.U.U.U.U.U.U.U.U.U.U.U.U.U.U.U.U.U.",
"U.U.U.U.U.U.U.U.U.U.U.U.U.U.U.U.a.U.U.U.U.U.U.U.U.U.U.U.U.U.U.U.U.U.U.",
"U.U.U.U.U.U.U.U.U.U.U.U.U.U.U.U.a.U.U.U.U.U.U.U.U.U.U.U.U.U.U.U.U.U.U.",
"U.U.U.U.U.U.U.U.U.U.U.U.U.U.U.U.p.U.U.U.U.U.U.U.U.U.U.U.U.U.U.U.U.U.U.",
"U.U.U.U.U.U.U.U.U.U.U.U.U.U.U.U.a.U.U.U.U.U.U.U.U.U.U.U.U.U.U.U.U.U.U.",
"U.U.U.U.U.U.U.U.U.U.U.U.U.U.U.U.a.U.U.U.U.U.U.U.U.U.U.U.U.U.U.U.U.U.U.",
"U.U.U.U.U.U.U.U.U.U.U.U.U.U.U.U.a.U.U.U.U.U.U.U.U.U.U.U.U.U.U.U.U.U.U.",
"U.U.U.U.U.U.U.U.U.U.U.U.U.U.U.U.p.U.U.U.U.U.U.U.U.U.U.U.U.U.U.U.U.U.U.",
"U.U.U.U.U.U.U.U.U.U.U.U.U.U.U.U.p.U.U.U.U.U.U.U.U.U.U.U.U.U.U.U.U.U.U.",
"U.U.U.U.U.U.U.U.U.U.U.U.U.U.U.U.t.U.U.U.U.U.U.U.U.U.U.U.U.U.U.U.U.U.U.",
"U.U.U.U.U.U.U.U.U.U.U.X = = = = = = = = = X U.U.U.U.U.U.U.U.U.U.U.U.U.",
"U.U.U.U.U.U.U.U.U.U.U.= = = = = = = = = = = U.U.U.U.U.U.U.U.U.U.U.U.U.",
"U.U.U.U.U.U.U.U.U.U.U.= = = = = = = = = = = U.U.U.U.U.U.U.U.U.U.U.U.U.",
"U.U.U.U.U.U.U.U.U.U.U.= = = = = = = = = = = U.U.U.U.U.U.U.U.U.U.U.U.U.",
"U.U.U.U.U.U.U.U.U.U.U.= = = = = = = = = = = U.U.U.U.U.U.U.U.U.U.U.U.U.",
"U.U.U.U.U.U.U.U.U.U.U.= = = = = = = = = = = U.U.U.U.U.U.U.U.U.U.U.U.U.",
"U.U.U.U.U.U.U.U.U.U.U.= = = = = = = = = = = U.U.U.U.U.U.U.U.U.U.U.U.U.",
"U.U.U.U.U.U.U.U.U.U.U.= = = = = = = = = = = U.U.U.U.U.U.U.U.U.U.U.U.U.",
"U.U.U.U.U.U.U.U.U.U.U.= = = = = = = = = = = U.U.U.U.U.U.U.U.U.U.U.U.U.",
"U.U.U.U.U.U.U.U.U.U.U.= = = = = = = = = = = U.U.U.U.U.U.U.U.U.U.U.U.U.",
"U.U.U.U.U.U.U.U.U.U.U.O = = = = = = = = = o U.U.U.U.U.U.U.U.U.U.U.U.U.",
"U.U.U.U.U.U.U.U.U.U.U.U.U.U.U.U.U.U.U.U.U.U.U.U.U.U.U.U.U.U.U.U.U.U.U.",
"U.U.U.U.U.U.U.U.U.U.U.U.U.U.U.U.U.U.U.U.U.U.U.U.U.U.U.U.U.U.U.U.U.U.U."
};
