/* XPM */
static char *result[] = {
/* columns rows colors chars-per-pixel */
"80 79 256 2 ",
"   c black",
".  c #0B0001",
"X  c #170309",
"o  c #320A07",
"O  c #2A152A",
"+  c #480301",
"@  c #5A0100",
"#  c #4E1705",
"$  c #770200",
"%  c #691004",
"&  c #58220B",
"*  c #523319",
"=  c #6C2D0E",
"-  c #75352F",
";  c #5E1C31",
":  c #2E5816",
">  c #0A6900",
",  c #346E12",
"<  c #2A592B",
"1  c #046B25",
"2  c #3A7628",
"3  c #366A35",
"4  c #3B7637",
"5  c #2D6728",
"6  c #0E5923",
"7  c #43761A",
"8  c #764F2C",
"9  c #44742D",
"0  c #6F6A30",
"q  c #5C5C24",
"w  c #342C69",
"e  c #15205F",
"r  c #522950",
"t  c #66315B",
"y  c #29615D",
"u  c #485754",
"i  c #486F52",
"p  c #566C6F",
"a  c #695B65",
"s  c #840403",
"d  c #980202",
"f  c #911F00",
"g  c #A50001",
"h  c #AA0002",
"j  c #A7060A",
"k  c #B40001",
"l  c #B80306",
"z  c #AE130E",
"x  c #8A3012",
"c  c #B6280F",
"v  c #903128",
"b  c #AE3127",
"n  c #8E1436",
"m  c #C60003",
"M  c #D80006",
"N  c #CF0B14",
"B  c #E80008",
"V  c #FA0006",
"C  c #FA0416",
"Z  c #F00B1A",
"A  c #C92D17",
"S  c #FE1723",
"D  c #EA0528",
"F  c #CC3127",
"G  c #F0322D",
"H  c #C50025",
"J  c #B0510A",
"K  c #8D4E2C",
"L  c #A65732",
"P  c #B16735",
"I  c #905C1B",
"U  c #CB5B04",
"Y  c #D65A05",
"T  c #D86305",
"R  c #CB6606",
"E  c #FA780A",
"W  c #F1700A",
"Q  c #F84B32",
"!  c #C86334",
"~  c #8E334E",
"^  c #9F2A49",
"/  c #DF2059",
"(  c #8E5150",
")  c #A55B67",
"_  c #B0726D",
"`  c #A3625A",
"'  c #FA4E53",
"]  c #D07350",
"[  c #F46857",
"{  c #D17764",
"}  c #FB776D",
"|  c #D15856",
" . c #0B870F",
".. c #358C0B",
"X. c #3B8527",
"o. c #3B8534",
"O. c #328F26",
"+. c #2B9D11",
"@. c #468C17",
"#. c #48AB06",
"$. c #438A27",
"%. c #44932C",
"&. c #469B2E",
"*. c #4B9C2C",
"=. c #469526",
"-. c #448A37",
";. c #479734",
":. c #539A33",
">. c #4BA32D",
",. c #4AA331",
"<. c #4CA734",
"1. c #53AC34",
"2. c #54A836",
"3. c #5BB53A",
"4. c #5DBA3C",
"5. c #55B337",
"6. c #54AE2F",
"7. c #62BB3B",
"8. c #638126",
"9. c #63C43C",
"0. c #68DC35",
"q. c #5AC52B",
"w. c #4B8E46",
"e. c #5CB844",
"r. c #5AA64F",
"t. c #62BB46",
"y. c #6BB855",
"u. c #689A6F",
"i. c #65C544",
"p. c #69CA48",
"a. c #6CD24B",
"s. c #72D94D",
"d. c #76DA54",
"f. c #6FC552",
"g. c #7BE459",
"h. c #76E64D",
"j. c #6ED151",
"k. c #9C9D24",
"l. c #FF830E",
"z. c #FD8913",
"x. c #FF9719",
"c. c #FF9A08",
"v. c #CAAA00",
"b. c #FFB00B",
"n. c #FEA525",
"m. c #FD9133",
"M. c #F3CD03",
"N. c #FAF202",
"B. c #F9ED06",
"V. c #FCE22B",
"C. c #A5945C",
"Z. c #D48652",
"A. c #D28A75",
"S. c #EA8A71",
"D. c #DDA560",
"F. c #82E95C",
"G. c #84F45E",
"H. c #8CD570",
"J. c #88EB66",
"K. c #8CF467",
"L. c #92F86D",
"P. c #9CFB7B",
"I. c #98F775",
"U. c #91EB72",
"Y. c #A1FC7D",
"T. c #ECEB56",
"R. c #000C8C",
"E. c #023589",
"W. c #003C9C",
"Q. c #023A94",
"!. c #0A328C",
"~. c #003DA4",
"^. c #003CB5",
"/. c #2C3B91",
"(. c #573D92",
"). c #07489A",
"_. c #0042A4",
"`. c #0044AB",
"'. c #0945A9",
"]. c #004AB6",
"[. c #0A52B8",
"{. c #335AA6",
"}. c #52528E",
"|. c #6C748E",
" X c #6764A6",
".X c #0056C8",
"XX c #005BD3",
"oX c #015CD8",
"OX c #0E51C8",
"+X c #0162D9",
"@X c #1865DA",
"#X c #0057E4",
"$X c #0169E6",
"%X c #0870ED",
"&X c #296AE4",
"*X c #586FD6",
"=X c #907393",
"-X c #8E629E",
";X c #CD4D82",
":X c #788B95",
">X c #798DB1",
",X c #7FA08B",
"<X c #70A5D3",
"1X c #3A979F",
"2X c #8A8D97",
"3X c #8998A6",
"4X c #8D8FAD",
"5X c #9AA8B6",
"6X c #93ACA9",
"7X c #A8B6BC",
"8X c #A8AAAF",
"9X c #A09F96",
"0X c #D28E87",
"qX c #F2958C",
"wX c #F2AD8F",
"eX c #F6ADAB",
"rX c #D4AAA1",
"tX c #AAF98F",
"yX c #ACD3AB",
"uX c #ABE393",
"iX c #FDD0AB",
"pX c #FEE6B8",
"aX c #FFF6BF",
"sX c #DCCDAB",
"dX c #899CC6",
"fX c #9696C4",
"gX c #97A7C9",
"hX c #96ABD3",
"jX c #93A9CE",
"kX c #A8B6C8",
"lX c #A9B7D6",
"zX c #AFB1D0",
"xX c #B0B7E8",
"cX c #A1A8DD",
"vX c #C2BCCB",
"bX c #B8C3CB",
"nX c #B9C6D9",
"mX c #BAC8E3",
"MX c #B7CDEC",
"NX c #C5CBDB",
"BX c #D0D2D9",
"VX c #FBCBCA",
"CX c #F7F5CF",
"ZX c #C9D6EA",
"AX c #CAD8F1",
"SX c #CED2F1",
"DX c #D8E5F7",
"FX c #D7E6EF",
"GX c #E6EBF9",
"HX c #EAF5FD",
"JX c #F5FCFE",
"KX c #FDFEFE",
"LX c #F7F6F9",
"PX c #EFECE8",
"IX c #D6E7DB",
"UX c None",
/* pixels */
"UXUXUXUXUXUXUXUXUXUXUXUXUXUXUXUXUXUXUXUXUXUXUXUXUXUXUXUXUXUXUXUXUXUXUXUXUXUXUXUXUXUXUXUXUXUXUXUXUXV V S V B UXUXUXUXUXUXUXUXUXUXUXUXUXUXUXUXUXUXUXUXUXUXUXUXUXUX",
"UXUXUXUXUXUXUXUXUXUXUXUXUXUXUXUXUXUXUXUXUXUXUXUXUXUXUXUXUXUXUXUXUXUXUXUXUXUXUXUXUXUXUXUXUXUXUXUXeXeX} V S V V B UXUXUXUXUXUXUXUXUXUXUXUXUXUXUXUXUXUXUXUXUXUXUXUX",
"UXUXUXUXUXUXUXUXUXUXUXUXUXUXUXUXUXUXUXUXUXUXUXUXUXUXUXUXUXUXUXUXUXUXUXUXUXUXUXUXUXUXUXUXUXUXUXVXPXVXLX} V S V C V M UXUXUXUXUXUXUXUXUXUXUXUXUXUXUXUXUXUXUXUXUXUX",
"UXUXUXUXUXUXUXUXUXUXUXUXUXUXUXUXUXUXUXUXUXUXUXUXUXUXUXUXUXUXUXUXUXUXUXUXUXUXUXUXUXUXUXUXUXUXVXqX' ' LXeXV S C V B B m UXUXUXUXUXUXUXUXUXUXUXUXUXUXUXUXUXUXUXUXUX",
"UXUXUXUXUXUXUXUXUXUXUXUXUXUXUXUXUXUXUXUXUXUXUXUXUXUXUXUXUXUXUXUXUXUXUXUXUXUXUXUXUXUXUXUXUXqXqXVXPXeXqXeXC G C V B M M m UXUXUXUXUXUXUXUXUXUXUXUXUXUXUXUXUXUXUXUX",
"UXUXUXUXUXUXUXUXUXUXUXUXUXUXUXUXUXUXUXUXUXUXUXUXUXUXUXUXUXUXUXUXUXUXUXUXUXUXUXUXUXUXUXUXUX' qXLXLXVXqX[ V C C V V B M M k UXUXUXUXUXUXUXUXUXUXUXUXUXUXUXUXUXUXUX",
"UXUXUXUXUXUXUXUXUXUXUXUXUXUXUXUXUXUXUXUXUXUXUXUXUXUXUXUXUXUXUXUXUXUXUXUXUXUXUXUXUXUXUXUXG V S.eXqXqX} V S C C C B B B m m h UXUXUXUXUXUXUXUXUXUXUXUXUXUXUXUXUXUX",
"UXUXUXUXUXUXUXUXUXUXUXUXUXUXUXUXUXUXUXUXUXUXUXUXUXUXG.s.UXUXUXUXUXUXUXUXUXUXUXUXUXF z j j d d g m M V Z B C C C C B M M m l UXUXUXUXUXUXUXUXUXUXUXUXUXUXUXUXUXUX",
"UXUXUXUXUXUXUXUXUXP.U.F.F.d.j.UXUXUXUXUXUXUXUXK.Y.Y.L.I.I.U.J.d.UXUXUXUXUXUXUXUXUXk d g g j d $ % @ f N M M B C B B B M m k h UXUXJXKXMXUXUXUXUXUXUXUXUXUXUXUXUX",
"UXUXUXUXUXUXtXuXP.J.J.U.J.J.F.F.p.9.UXUXUXUXUXU.G.G.q.h.P.I.K.F.d.1.UXUXUXUXUXUXUXk g g d $ ~ ` ) ) r   $ l m M B M M M l k l UXUXFXGXnXUXUXUXUXUXUXUXUXUXUXUXUX",
"UXUXUXUXUXtXU.i.f.y.I.I.U.U.J.F.d.s.9.UXUXUXIXKXsXh.IXIXF.L.J.d.p.5.UXUXUXUXUXUXUXh m g n   ( 0X0X_ o t O X v h m m M m m k j z UXFXHXlXUXUXUXUXUXUXUXUXUXUXUXUX",
"UXUXUXUXtXU.J.J.U.I.tXI.I.U.J.F.d.j.i.i.UXUXKXKXKXPXKXKXuXh.d.a.7.2.$.UXUXUXUXUXUXUXz z s _ _ rXeX_ 0XrX0X( _ ( v h k m l k z g ^ HXHXnXUXUXUXUXUXUXJXGXZXUXUXUX",
"UXUXUXtXJ.U.tXtXI.tXtXI.U.J.J.d.d.p.t.t.#.IXIXNXJXKXKXKXPX0.a.e.2.:.$.UXUXUXUXUXUXUXUXUXP SXBXpXpXiXLXDXeXqX0XA._ K $ k k k b d vXLXFXnXnXUXUXUXJXKXDXAXlXUXUXUX",
"UXUXtXP.U.U.U.I.P.P.I.I.K.J.F.d.a.i.e.3.6.y.|.:XIXKXKXKXKXd.9.5.>.%.$.UXUXUXUXUXUXUXUXUXiXNX6XaXpXPXDX<XzXiXeXrXS._ o % d z h ^ GXKXHXMXmXJXKXKXGXnXlXlXUXUXUXUX",
"UXP.I.U.I.I.I.tXP.I.U.K.J.J.d.j.i.e.5.1.<.#.y {.LXLXBX9XBXH.#.<.=.$.$.UXUXUXUXUXUXUXpXCXVXwXwXCXpXPX<X{.<XpXiXwXqX` + & % s s 9XKXKXKXDXAXHXKXFXNXZXPXUXUXUXUXUX",
"UXJ.J.K.L.I.I.P.I.U.U.J.F.d.j.p.i.3.2.,.&.:...5XKXIXe 8X:Xf.&.-.$.:.$.UXUXUXUXUXUXiXCXCXCXpXwXA.iXHX{.e kXpXiXwX] # & % + _ wXBXKXKXKXJXJXJXKXHXHXJXJXJXHXHXDXUX",
"UXK.K.K.L.I.I.L.K.K.J.g.g.j.p.i.4.2.<.;.%.;.@.2XKX7XR.R.< 3.$.$.X.$.8.UXUXUXUXUXUXiXpXpXpXiX0XZ.S.PX<X{.yXpXiXwXL @ = + _ S.S.GXJXJXJXJXJXJXHXHXFXFXZXNXbXlXzXjX",
"d.g.g.K.K.L.I.g.J.J.g.g.d.f.i.e.3.<.&.%.%.;.@.w.ZX5XR.R.u.e.X.$.$.X.! [ UXUXUXUXUXwXiXiXwXwXA.A.K _ C.a   0XiXwX{ % @ ( { { BXAXHXJXJXJXJXHXHXHXHXHXJXHXHXGXFXlX",
"a.h.g.g.L.g.g.g.g.d.d.s.j.i.e.3.1.,.*.%.%.%.O.w.lXkX  }.yX..$.$.O.0 F Q Q UXUXUXUXC.wXwXA.A.A.(   X o X   _ wXwXqXv % { F rXKXFXFXHXHXHXHXHXDXAXZXFXBXbXgXkXnXlX",
"p.s.g.g.g.g.g.g.d.a.f.i.t.e.3.1.,.&.%.%.%.%.%.o.:XMXnXHXuX .%.$.O.I A Q Q Q UXUXUX. ( _ A.A.(   # O X X ` A.qXS.S.{ | { | ' LXJXMXMXFXAXAXMXmXlXjXZXHXDXFXlXjXdX",
"i.a.s.a.d.j.j.j.p.p.i.4.3.5.1.*.*.%.&.%.%.%.%.4 4 u.uXtXh.&.$.X.2 c b F Q F UXUXUXUXo   ; o     . ; _ A.0X0XS.S.S.} [ | G V 0XDXZXdXjXhXhXhXjXjXhXhXlXMXAXDXMXUX",
"e.p.a.a.p.p.p.p.i.t.3.3.1.<.&.&.&.*.%.;.%.$.O.4 w.r.g.g.g.f.;.X.O.I A F Q F UXUXUXUXwX_ & a a _ _ ` 0XwXwXS.S.S.[ [ ' S S S V =XhXfX4XjXhXhXxXxXxXUXhXjXdXMXcXUX",
"5.a.i.e.4.4.e.4.4.3.5.1.,.*.&.=.&.%.%.O.%.%.%.9 O.e.g.h.0.#.6.8.O.I A F A UXUXUXUXUXUXiXA.a 2X4X:Xa wXD.A.A.S.} [ G S S S B N j |.hXdXjXhXcXxXUXUXUXUXUXUXhXUXUX",
"UX9.4.4.4.e.5.5.1.1.<.,.*.*.&.&.&.&.;.;.%.%.o.5 ,XNXIXCXIXyXt...o.I A b UXUXUXUXUXUXUXS.iX_   +   A.wXS.S.S.[ [ F C S Z B m j j d 2XlXMXlXUXUXUXUXUXUXUXUXUXUXUX",
"UX4.4.5.5.5.6.6.<.,.,.&.&.&.&.%.&.;.%.&.O.;.3 fXSXLXKXKXKXKXFX2X> 0 l UXUXUXUXUXUXUXUXUXeXiXC.{ 0XwXS.{ } [ [ F C S Z B m h g j l g UXUXUXUXUXUXUXUXUXUXUXUXUXUX",
"UXUX4.5.5.<.<.,.,.&.>.O.&.&.&.&.&.&.&.&.;.,  XSXGXLXKXKXKXLXGXNXu.7 UXUXUXUXUXUXUXUXUXUXUXwXiXeXwXqXS.[ [ | b C S S B l h j g k h UXUXUXUXUXUXUXUXUXUXUXUXUXUXUX",
"UXUX,.<.<.,.,.&.&.,.,.&.&.&.,.O.&.&.O.;...a xXSXGXKXKXKXKXGXFXNXzX` A F Q UXUXUXUXUXQ ;X(.t { A.Z.[ | -X(.t B S Z M m h g g k h UXUXUXUXUXUXUXUXUXUXUXUXUXUXUXUX",
"UXUXUX,.<.&.,.,.,.O.,.&.&.,.,.>.,.,.;.&.u fXxXSXLXKXKXKXLXGXSXNXzX9Xc b G Q ' D G / -X(./ V N K -X X.X].r M S B M l h h h k h UXUXUXUXUXUXUXUXUXUXUXUXUXUXUXUXUX",
"UXUXUXUX<.5.,.>.,.,.&.,.&.,.>.>.&.&.-., }.cXSXSXLXKXKXLXHXGXSXxXzX5X( c F G Z V.M.].(.Z D / / =X+XXX].; l D B N k h g g k UXUXUXUXUXUXUXUXUXUXUXUXUXUXUXUXUXUXUX",
"UXUXUXUXUX<.<.5.,.,.>.,.,.<.<.<.<.O.: O 4XlXSXDXLXKXJXHXGXSXNXlXzXfX) c ! H v.T.:X+X*X*X&X<XT.V.9X.X; M D N m l h g h k UXUXUXUXUXUXUXUXUXUXUXUXUXUXUXUXUXUXUXUX",
"UXUXUXUXUXUXUX<.<.5.5.5.<.+.>.O.2 * o u fXmXSXGXGXHXGXDXAXZXxXlXgXfX) z F d a {.#X&X%X%X#XrXN.N.C.R.F C B m k h g g h UXUXUXUXUXUXUXUXUXUXUXUXUXUXUXUXUXUXUXUXUX",
"UXUXUXUXUXUXUXUXUXUX<.>.<.,X3 % ; n @ t zXxXSXSXDXDXDXSXZXxXlXhXjXdX( k v @ ^.@X%X%X%X&X#XdXD.C.R..X/ C D m h h g g UXUXUXUXUXUXUXUXUXUXUXUXUXUXUXUXUXUXUXUXUXUX",
"UXUXUXUXUXUXUXUXUXUXUXUXUX-X@ s d $ a 5XzXNXZXAXZXFXZXMXmXnXcXhXdX>Xb =X=Xt +X%X$X%X%X%X%X+X`.~.[.OX(.V D m g h h h UXUXUXUXUXUXUXUXUXUXUXUXUXUXUXUXUXUXUXUXUXUX",
"UXUXUXUXUXUXUXUXUXUXUXUXUX Xr r a -XxXNXnXnXNXNXNXmXnXnXlXkXjXdX>X-X-X8X=X&X+X@X$X%X%X$X$X@X@X@XoXOXOX^ M H g h k UXUXUXUXUXUXUXUXUXUXUXUXUXUXUXUXUXUXUXUXUXUXUX",
"UXUXUXUXUXUXUXUXUXUXUXUXUXSXcXxXMXSXNXbXbXbXbXbXbXbXbXgXgX5X4X>X|.( =X4X:X[.@X+X+X$X$X$X$X$X+X+X.X[.]./.j l j l n UXUXUXUXUXUXUXUXUXUXUXUXUXUXUXUXUXUXUXUXUXUXUX",
"UXUXUXUXUXUXUXUXUXUXUXUXUXAXDXFXSXSXNXkX7X7X7X7X7X7X5X5X3X>X>X X( z =X4X>X.X@X+X$X$X$X$X+X+X+X.X.X].[._./.~ j n UXUXUXUXUXUXUXUXUXUXUXUXUXUXUXUXUXUXUXUXUXUXUXUX",
"UXUXUXUXUXUXUXUXUXUXUXUXUXUXNXnXzX7X7X7X5X8X6X5X6X5X3X2X:X|.|.- f c ) 4X[.XX.X+X+XoX+X+X+X+X.X.X[.`._.).~._.(.Q.UXUXUXUXUXUXUXUXUXUXUXUXUXUXUXUXUXUXUXUXUXUXUXUX",
"UXUXUXUXUXUXUXUXUXUXUXUXUXUXUXUXUXUXUX3X3X3X2X2X:X:X|.|.p a = f b F ^ UXUX.X.X+XXX.XXX.X.X[..X].[.`._.W.'.Q.'.UXUXUXUXUXUXUXUXUXUXUXUXUXUXUXUXUXUXUXUXUXUXUXUXUX",
"UXUXUXUXUXUXUXUXUXUXUXUXUXUXUXUXUXUXUXUXUX2Xu.p p u u < * % f v c F UXUX@X%X%X$X$X$X+X+X.X].].].].`._.).W.W.!.UXUXUXUXUXUXUXUXUXUXUXUXUXUXUXUXUXUXUXUXUXUXUXUXUX",
"UXUXUXUXUXUXUXUXUXUXUXUXUXUXUXUXUXUXUXUXcX>X> i 4 3 : 6 < * $ x L UXUX$X%X%X$X+XXX.X.X[.].`.`._._._._._.W.).UXUXUXUXUXUXUXUXUXUXUXUXUXUXUXUXUXUXUXUXUXUXUXUXUXUX",
"UXUXUXUXUXUXUXUXUXUXUXUXUXUXUXUXUXUXUXUXcX3X2 w.9 9 3 3 5 < < UXUXUX+X%X$X$X#XoX.X].].`.~.~.W.W.W.W.Q._.Q._.UXUXUXUXUXUXUXUXUXUXUXUXUXUXUXUXUXUXUXUXUXUXUXUXUXUX",
"UXUXUXUXUXUXUXUXUXUXUXUXUXUXUXUXUXUXUXUXxX3X..i w.y.y.y.r.2 5 6 UXUXoX$X#X#XoX.X].~.`._.W.Q.W.W.W.W.~.W.Q._.UXUXUXUXUXUXUXUXUXUXUXUXUXUXUXUXUXUXUXUXUXUXUXUXUXUX",
"UXUXUXUXUXUXUXUXUXUXUXUXUXUXUXUXUXUXUXUXxX3X..r.U.L.G.F.e.%.5 3 , ).oX#X#XXX.X].`.~.~.Q.Q.Q.Q.Q.Q.Q.Q.Q.Q.).UXUXUXUXUXUXUXUXUXUXUXUXUXUXUXUXUXUXUXUXUXUXUXUXUXUX",
"UXUXUXUXUXUXUXUXUXUXUXUXUXUXUXUXUXUXUXUXSX6X=.J.Y.I.F.s.5.-.2 4 , {.XXXX.X.X.X].`.E.E.E.E.E.E.E.E.E.E.Q._.Q.UXUXUXUXUXUXUXUXUXUXUXUXUXUXUXUXUXUXUXUXUXUXUXUXUXUX",
"UXUXUXUXUXUXUXUXUXUXUXUXUXUXUXUXUXUXUXUXSX5Xr.U.Y.K.F.6. .1 1 O...).oXXXXXOX].].~.E.E.E.E.E.E.!.!.E.E._._.UXUXUXUXUXUXUXUXUXUXUXUXUXUXUXUXUXUXUXUXUXUXUXUXUXUXUX",
"UXUXUXUXUXUXUXUXUXUXUXUXUXUXUXUXUXUXUXkXSXgX7.I.I.J.q.C.C.C.I 6.1X@XoXXXXX.X].`.~.E.E.E.Q.e E.Q.Q.).).).UXUXUXUXUXUXUXUXUXUXUXUXUXUXUXUXUXUXUXUXUXUXUXUXUXUXUXUX",
"UXUXUXUXUXUXUXUXUXUXUXUXUXUXUXUXUXUXUXzXSXBXF.L.L.h.uXwXD.] ! P  XoX#XoXXX.X^.`.W.E.E.e e w w w w UXUXUXUXUXUXUXUXUXUXUXUXUXUXUXUXUXUXUXUXUXUXUXUXUXUXUXUXUXUXUX",
"UXUXUXUXUXUXUXUXUXUXUXUXUXUXUXUXUXUXUXzXGXCXF.I.G.U.wXZ.! Z.Z.! J }.+XoX.X.X^.^.Q.E.e o @ $ $ $ g UXUXUXUXUXUXUXUXUXUXUXUXUXUXUXUXUXUXUXUXUXUXUXUXUXUXUXUXUXUXUX",
"UXUXUXUXUXUXUXUXUXUXUXUXUXUXUXUXUXUXUXUXGXuXK.P.g.C.L P Z.Z.! P L J {.OXOX.X`._.E.E.}.=Xt t ; n ~ 4XUXUXUXUXUXUXUXUXUXUXUXUXUXUXUXUXUXUXUXUXUXUXUXUXUXUXUXUXUXUX",
"UXUXUXUXUXUXUXUXUXUXUXUXUXUXUXUXUXUXUXUXBXF.P.L.d.0 x P P P P L K K - ].].].`._.).R.>XzXvXvXNXbXBXGX8XUXUXUXUXUXUXUXUXUXUXUXUXUXUXUXUXUXUXUXUXUXUXUXUXUXUXUXUXUX",
"UXUXUXUXUXUXUXUXUXUXUXUXUXUXUXUXUXUXUXUXyXK.P.K.e.k.- % I x K I x - x u ].^._.W.e Q.u C.rXrXvXsXsX2X5 9 3 4 4 -.UXUXUXUXUXUXUXUXUXUXUXUXUXUXUXUXUXUXUXUXUXUXUXUX",
"UXUXUXUXUXUXUXUXUXUXUXUXUXUXUXUXUXUXUXUXH.I.L.F.<.C.D.Z.- + = = = = - x w ~.'.Q.E.).6 > > 5 , , > > 2 4 4 o.w.&.UXUXUXUXUXUXUXUXUXUXUXUXUXUXUXUXUXUXUXUXUXUXUXUX",
"UXUXUXUXUXUXUXUXUXUXUXUXUXUXUXUXUXUXUXUXJ.P.K.F.<.6 u D.Z.L = o & = = = = w Q.).E.y 5 3 2 2 2 9 2 4 2 4 -.-.,.r.UXUXUXUXUXUXUXUXUXUXUXUXUXUXUXUXUXUXUXUXUXUXUXUX",
"UXUXUXUXUXUXUXUXUXUXUXUXUXUXUXUXUXUXUXUXY.I.K.p.X.: 6 6 9 ` ` K & # & & = = ; e E.w , 5 2 2 2 X.X.X.$.-.-...r.UXUXUXUXUXUXUXUXUXUXUXUXUXUXUXUXUXUXUXUXUXUXUXUXUX",
"UXUXUXUXUXUXUXUXUXUXUXUXUXUXUXUXUXUXUXF.Y.L.G.3.o.u : 9 o.1 9 K L - & o & * = = ; y 2 2 2 2 2 $.$.$.$.$.%.>.6XUXUXUXUXUXUXUXUXUXUXUXUXUXUXUXUXUXUXUXUXUXUXUXUXUX",
"UXUXUXUXUXUXUXUXUXUXUXUXUXUXUXUXUXUXUXG.Y.L.d.6.i |.i O.j.:.4 1 5 q 8 K & + & & # , 5 2 2 2 7 7 @.$.%.%...6XUXUXUXUXUXUXUXUXUXUXUXUXUXUXUXUXUXUXUXUXUXUXUXUXUXUX",
"UXUXUXUXUXUXUXUXUXUXUXUXUXUXUXUXUXUXUXL.P.L.s.@.u |.=Xw.9.f.;.-.X.5 3 0 ( K & + q 5 2 2 , 2 @.@.@.$.....6XUXUXUXUXUXUXUXUXUXUXUXUXUXUXUXUXUXUXUXUXUXUXUXUXUXUXUX",
"UXUXUXUXUXUXUXUXUXUXUXUXUXUXUXUXUXUXUXI.Y.P.F.*.u |.:X5Xy.9.t.O.o.4 3 5 3 0 K 3 4 9 2 2 2 , , , 7 > O.6XUXUXUXUXUXUXUXUXUXUXUXUXUXUXUXUXUXUXUXUXUXUXUXUXUXUXUXUX",
"UXUXUXUXUXUXUXUXUXUXUXUXUXUXUXUXUXUXh.L.tXY.G.s.w.u |.4X7Xf.#.>.o.-.w.-.w.o.w.e.7.2.:.7 , : q : 1 a rXsXUXUXUXUXUXUXUXUXUXUXUXUXUXUXUXUXUXUXUXUXUXUXUXUXUXUXUXUX",
"UXUXUXUXUXUXUXUXUXUXUXUXUXUXUXUXUXUXd.L.Y.Y.K.F.e.u p 2XgXnX6X;.o.;.w.e.r.d.g.d.F.9.7.:.@.: 1 i Z.n.c.c.N.UXUXUXUXUXUXUXUXUXUXUXUXUXUXUXUXUXUXUXUXUXUXUXUXUXUXUX",
"UXUXUXUXUXUXUXUXUXUXUXUXUXUXUXUXUXUXs.L.P.L.J.d.3.3 u :X4XkXNX2X .w.<.e.g.g.g.g.s.7.7.6.=.q ` Z.n.n.n.m.M.N.UXUXUXUXUXUXUXUXUXUXUXUXUXUXUXUXUXUXUXUXUXUXUXUXUXUX",
"UXUXUXUXUXUXUXUXUXUXUXUXUXUXUXUXUXUXa.K.L.J.F.9.<.3 < i 2X5XkX6X+.<.<.i.h.g.g.g.s.p.7.2.O.k.b.W n.n.n.x.z.N.UXUXUXUXUXUXUXUXUXUXUXUXUXUXUXUXUXUXUXUXUXUXUXUXUXUX",
"UXUXUXUXUXUXUXUXUXUXUXUXUXUXUXUXUXUX7.F.F.F.9.3.*.5 < > u.5XyX7X-.&.<.a.a.s.h.h.0.t.7.6.=.k.n.z.x.n.x.x.E b.B.UXUXUXUXUXUXUXUXUXUXUXUXUXUXUXUXUXUXUXUXUXUXUXUXUX",
"UXUXUXUXUXUXUXUXUXUXUXUXUXUXUXUXUXUXH.F.F.9.3.2.*.5 y.y.6XgXlXbX3X+.5.4.a.a.a.a.9.7.7.7.0.k.n.z.z.x.x.z.l.E B.UXUXUXUXUXUXUXUXUXUXUXUXUXUXUXUXUXUXUXUXUXUXUXUXUX",
"UXUXUXUXUXUXUXUXUXUXUXUXUXUXUXUXUXUXUXH.9.7.*.=.5 ;.P.G.yXAXAXZXmXu.#.4.9.9.9.9.9.7.7.7.0.F.x.E W x.x.z.z.E b.B.UXUXUXUXUXUXUXUXUXUXUXUXUXUXUXUXUXUXUXUXUXUXUXUX",
"UXUXUXUXUXUXUXUXUXUXUXUXUXUXUXUXUXUXUXuXH.*.>.1.< X.h.h.UXUXAXDXDXFXy.6.4.5.3.3.3.3.7.7.9.k.x.z.W z.E z.E E W B.UXUXUXUXUXUXUXUXUXUXUXUXUXUXUXUXUXUXUXUXUXUXUXUX",
"UXUXUXUXUXUXUXUXUXUXUXUXUXUXUXUXUXUXUXUXH.:.*.i.p.J.J.p.UXUXUXUXUXUXUX..5.6.1.6.6.6.6.6.<.k.x.l.U E E E l.E W c.N.UXUXUXUXUXUXUXUXUXUXUXUXUXUXUXUXUXUXUXUXUXUXUX",
"UXUXUXUXUXUXUXUXUXUXUXUXUXUXUXUXUXUXUXUXH.y.:.=.3.d.p.<.UXUXUXUXUXUXUXUXO.>.*.*.*.*.>.8.&.k.c.W U W E z.E z.z.E N.UXUXUXUXUXUXUXUXUXUXUXUXUXUXUXUXUXUXUXUXUXUXUX",
"UXUXUXUXUXUXUXUXUXUXUXUXUXUXUXUXUXUXUXUXUXy.2.*.X...UXUXUXUXUXUXUXUXUXUXUXX.=.$.@.@.@.=.=.k.l.W Y T W W z.z.x.z.b.N.UXUXUXUXUXUXUXUXUXUXUXUXUXUXUXUXUXUXUXUXUXUX",
"UXUXUXUXUXUXUXUXUXUXUXUXUXUXUXUXUXUXUXUXUXUXUXX.UXUXUXUXUXUXUXUXUXUXUXUXUXUX@.$.=.=.=.@.+.I E T Y U T E x.x.x.x.E B.N.UXUXUXUXUXUXUXUXUXUXUXUXUXUXUXUXUXUXUXUXUX",
"UXUXUXUXUXUXUXUXUXUXUXUXUXUXUXUXUXUXUXUXUXUXUXUXUXUXUXUXUXUXUXUXUXUXUXUXUXUXUXUXUX=.@.$. .I W R Y U T z.x.x.x.x.z.c.N.UXUXUXUXUXUXUXUXUXUXUXUXUXUXUXUXUXUXUXUXUX",
"UXUXUXUXUXUXUXUXUXUXUXUXUXUXUXUXUXUXUXUXUXUXUXUXUXUXUXUXUXUXUXUXUXUXUXUXUXUXUXUXUXUXUXUXUXR T T U J Y E z.x.x.x.z.E M.B.UXUXUXUXUXUXUXUXUXUXUXUXUXUXUXUXUXUXUXUX",
"UXUXUXUXUXUXUXUXUXUXUXUXUXUXUXUXUXUXUXUXUXUXUXUXUXUXUXUXUXUXUXUXUXUXUXUXUXUXUXUXUXUXUXUXUXUXT U UXUXJ l.c.z.z.z.l.E W M.UXUXUXUXUXUXUXUXUXUXUXUXUXUXUXUXUXUXUXUX",
"UXUXUXUXUXUXUXUXUXUXUXUXUXUXUXUXUXUXUXUXUXUXUXUXUXUXUXUXUXUXUXUXUXUXUXUXUXUXUXUXUXUXUXUXUXUXUXUXUXUXUXl.z.l.z.l.E E U v.v.UXUXUXUXUXUXUXUXUXUXUXUXUXUXUXUXUXUXUX",
"UXUXUXUXUXUXUXUXUXUXUXUXUXUXUXUXUXUXUXUXUXUXUXUXUXUXUXUXUXUXUXUXUXUXUXUXUXUXUXUXUXUXUXUXUXUXUXUXUXUXUXE l.l.l.E E T U R v.UXUXUXUXUXUXUXUXUXUXUXUXUXUXUXUXUXUXUX",
"UXUXUXUXUXUXUXUXUXUXUXUXUXUXUXUXUXUXUXUXUXUXUXUXUXUXUXUXUXUXUXUXUXUXUXUXUXUXUXUXUXUXUXUXUXUXUXUXUXUXUXW E E E E W U U U v.UXUXUXUXUXUXUXUXUXUXUXUXUXUXUXUXUXUXUX",
"UXUXUXUXUXUXUXUXUXUXUXUXUXUXUXUXUXUXUXUXUXUXUXUXUXUXUXUXUXUXUXUXUXUXUXUXUXUXUXUXUXUXUXUXUXUXUXUXUXUXUXUXE T T T U U Y U UXUXUXUXUXUXUXUXUXUXUXUXUXUXUXUXUXUXUXUX",
"UXUXUXUXUXUXUXUXUXUXUXUXUXUXUXUXUXUXUXUXUXUXUXUXUXUXUXUXUXUXUXUXUXUXUXUXUXUXUXUXUXUXUXUXUXUXUXUXUXUXUXUXT T T U R T R UXUXUXUXUXUXUXUXUXUXUXUXUXUXUXUXUXUXUXUXUX",
"UXUXUXUXUXUXUXUXUXUXUXUXUXUXUXUXUXUXUXUXUXUXUXUXUXUXUXUXUXUXUXUXUXUXUXUXUXUXUXUXUXUXUXUXUXUXUXUXUXUXUXUXUXUXU R U R UXUXUXUXUXUXUXUXUXUXUXUXUXUXUXUXUXUXUXUXUXUX"
};
