/* XPM */
static char *result[] = {
/* columns rows colors chars-per-pixel */
"80 79 256 2 ",
"   c black",
".  c #0B0001",
"X  c #170309",
"o  c #320A07",
"O  c #2A152A",
"+  c #480301",
"@  c #5A0100",
"#  c #4E1705",
"$  c #770200",
"%  c #691004",
"&  c #58220B",
"*  c #523319",
"=  c #6C2D0E",
"-  c #75352F",
";  c #5E1C31",
":  c #2E5816",
">  c #0A6900",
",  c #346E12",
"<  c #2A592B",
"1  c #046B25",
"2  c #3A7628",
"3  c #366A35",
"4  c #3B7637",
"5  c #2D6728",
"6  c #0E5923",
"7  c #43761A",
"8  c #764F2C",
"9  c #44742D",
"0  c #6F6A30",
"q  c #5C5C24",
"w  c #342C69",
"e  c #15205F",
"r  c #522950",
"t  c #66315B",
"y  c #29615D",
"u  c #485754",
"i  c #486F52",
"p  c #566C6F",
"a  c #695B65",
"s  c #840403",
"d  c #980202",
"f  c #911F00",
"g  c #A50001",
"h  c #AA0002",
"j  c #A7060A",
"k  c #B40001",
"l  c #B80306",
"z  c #AE130E",
"x  c #8A3012",
"c  c #B6280F",
"v  c #903128",
"b  c #AE3127",
"n  c #8E1436",
"m  c #C60003",
"M  c #D80006",
"N  c #CF0B14",
"B  c #E80008",
"V  c #FA0006",
"C  c #FA0416",
"Z  c #F00B1A",
"A  c #C92D17",
"S  c #FE1723",
"D  c #EA0528",
"F  c #CC3127",
"G  c #F0322D",
"H  c #C50025",
"J  c #B0510A",
"K  c #8D4E2C",
"L  c #A65732",
"P  c #B16735",
"I  c #905C1B",
"U  c #CB5B04",
"Y  c #D65A05",
"T  c #D86305",
"R  c #CB6606",
"E  c #FA780A",
"W  c #F1700A",
"Q  c #F84B32",
"!  c #C86334",
"~  c #8E334E",
"^  c #9F2A49",
"/  c #DF2059",
"(  c #8E5150",
")  c #A55B67",
"_  c #B0726D",
"`  c #A3625A",
"'  c #FA4E53",
"]  c #D07350",
"[  c #F46857",
"{  c #D17764",
"}  c #FB776D",
"|  c #D15856",
" . c #0B870F",
".. c #358C0B",
"X. c #3B8527",
"o. c #3B8534",
"O. c #328F26",
"+. c #2B9D11",
"@. c #468C17",
"#. c #48AB06",
"$. c #438A27",
"%. c #44932C",
"&. c #469B2E",
"*. c #4B9C2C",
"=. c #469526",
"-. c #448A37",
";. c #479734",
":. c #539A33",
">. c #4BA32D",
",. c #4AA331",
"<. c #4CA734",
"1. c #53AC34",
"2. c #54A836",
"3. c #5BB53A",
"4. c #5DBA3C",
"5. c #55B337",
"6. c #54AE2F",
"7. c #62BB3B",
"8. c #638126",
"9. c #63C43C",
"0. c #68DC35",
"q. c #5AC52B",
"w. c #4B8E46",
"e. c #5CB844",
"r. c #5AA64F",
"t. c #62BB46",
"y. c #6BB855",
"u. c #689A6F",
"i. c #65C544",
"p. c #69CA48",
"a. c #6CD24B",
"s. c #72D94D",
"d. c #76DA54",
"f. c #6FC552",
"g. c #7BE459",
"h. c #76E64D",
"j. c #6ED151",
"k. c #9C9D24",
"l. c #FF830E",
"z. c #FD8913",
"x. c #FF9719",
"c. c #FF9A08",
"v. c #CAAA00",
"b. c #FFB00B",
"n. c #FEA525",
"m. c #FD9133",
"M. c #F3CD03",
"N. c #FAF202",
"B. c #F9ED06",
"V. c #FCE22B",
"C. c #A5945C",
"Z. c #D48652",
"A. c #D28A75",
"S. c #EA8A71",
"D. c #DDA560",
"F. c #82E95C",
"G. c #84F45E",
"H. c #8CD570",
"J. c #88EB66",
"K. c #8CF467",
"L. c #92F86D",
"P. c #9CFB7B",
"I. c #98F775",
"U. c #91EB72",
"Y. c #A1FC7D",
"T. c #ECEB56",
"R. c #000C8C",
"E. c #023589",
"W. c #003C9C",
"Q. c #023A94",
"!. c #0A328C",
"~. c #003DA4",
"^. c #003CB5",
"/. c #2C3B91",
"(. c #573D92",
"). c #07489A",
"_. c #0042A4",
"`. c #0044AB",
"'. c #0945A9",
"]. c #004AB6",
"[. c #0A52B8",
"{. c #335AA6",
"}. c #52528E",
"|. c #6C748E",
" X c #6764A6",
".X c #0056C8",
"XX c #005BD3",
"oX c #015CD8",
"OX c #0E51C8",
"+X c #0162D9",
"@X c #1865DA",
"#X c #0057E4",
"$X c #0169E6",
"%X c #0870ED",
"&X c #296AE4",
"*X c #586FD6",
"=X c #907393",
"-X c #8E629E",
";X c #CD4D82",
":X c #788B95",
">X c #798DB1",
",X c #7FA08B",
"<X c #70A5D3",
"1X c #3A979F",
"2X c #8A8D97",
"3X c #8998A6",
"4X c #8D8FAD",
"5X c #9AA8B6",
"6X c #93ACA9",
"7X c #A8B6BC",
"8X c #A8AAAF",
"9X c #A09F96",
"0X c #D28E87",
"qX c #F2958C",
"wX c #F2AD8F",
"eX c #F6ADAB",
"rX c #D4AAA1",
"tX c #AAF98F",
"yX c #ACD3AB",
"uX c #ABE393",
"iX c #FDD0AB",
"pX c #FEE6B8",
"aX c #FFF6BF",
"sX c #DCCDAB",
"dX c #899CC6",
"fX c #9696C4",
"gX c #97A7C9",
"hX c #96ABD3",
"jX c #93A9CE",
"kX c #A8B6C8",
"lX c #A9B7D6",
"zX c #AFB1D0",
"xX c #B0B7E8",
"cX c #A1A8DD",
"vX c #C2BCCB",
"bX c #B8C3CB",
"nX c #B9C6D9",
"mX c #BAC8E3",
"MX c #B7CDEC",
"NX c #C5CBDB",
"BX c #D0D2D9",
"VX c #FBCBCA",
"CX c #F7F5CF",
"ZX c #C9D6EA",
"AX c #CAD8F1",
"SX c #CED2F1",
"DX c #D8E5F7",
"FX c #D7E6EF",
"GX c #E6EBF9",
"HX c #EAF5FD",
"JX c #F5FCFE",
"KX c #FDFEFE",
"LX c #F7F6F9",
"PX c #EFECE8",
"IX c #D6E7DB",
"UX c None",
/* pixels */
"UXUXUXUXUXUXUXUXUXUXUXUXUXUXUXUXUXUXUXUXUXUXUXUXUXUXB V S V V UXUXUXUXUXUXUXUXUXUXUXUXUXUXUXUXUXUXUXUXUXUXUXUXUXUXUXUXUXUXUXUXUXUXUXUXUXUXUXUXUXUXUXUXUXUXUXUXUX",
"UXUXUXUXUXUXUXUXUXUXUXUXUXUXUXUXUXUXUXUXUXUXUXUXB V C S V } eXeXUXUXUXUXUXUXUXUXUXUXUXUXUXUXUXUXUXUXUXUXUXUXUXUXUXUXUXUXUXUXUXUXUXUXUXUXUXUXUXUXUXUXUXUXUXUXUXUX",
"UXUXUXUXUXUXUXUXUXUXUXUXUXUXUXUXUXUXUXUXUXUXM V V V S V } LXVXPXeXUXUXUXUXUXUXUXUXUXUXUXUXUXUXUXUXUXUXUXUXUXUXUXUXUXUXUXUXUXUXUXUXUXUXUXUXUXUXUXUXUXUXUXUXUXUXUX",
"UXUXUXUXUXUXUXUXUXUXUXUXUXUXUXUXUXUXUXUXUXm B B C C S V eXPX' ' qXVXUXUXUXUXUXUXUXUXUXUXUXUXUXUXUXUXUXUXUXUXUXUXUXUXUXUXUXUXUXUXUXUXUXUXUXUXUXUXUXUXUXUXUXUXUXUX",
"UXUXUXUXUXUXUXUXUXUXUXUXUXUXUXUXUXUXUXUXl M B V C C S V eXwXeXPXVXeXqXUXUXUXUXUXUXUXUXUXUXUXUXUXUXUXUXUXUXUXUXUXUXUXUXUXUXUXUXUXUXUXUXUXUXUXUXUXUXUXUXUXUXUXUXUX",
"UXUXUXUXUXUXUXUXUXUXUXUXUXUXUXUXUXUXUXk M M B B V C C V ' eXVXKXLXqX' UXUXUXUXUXUXUXUXUXUXUXUXUXUXUXUXUXUXUXUXUXUXUXUXUXUXUXUXUXUXUXUXUXUXUXUXUXUXUXUXUXUXUXUXUX",
"UXUXUXUXUXUXUXUXUXUXUXUXUXUXUXUXUXUXh m m B B B C C C S V } qXqXqX} B G UXUXUXUXUXUXUXUXUXUXUXUXUXUXUXUXUXUXUXUXUXUXUXUXUXUXUXUXUXUXUXUXUXUXUXUXUXUXUXUXUXUXUXUX",
"UXUXUXUXUXUXUXUXUXUXUXUXUXUXUXUXUXUXk m M M B C V C C B Z B M k j d d g z H F UXUXUXUXUXUXUXUXUXUXUXUXUXh.G.UXUXUXUXUXUXUXUXUXUXUXUXUXUXUXUXUXUXUXUXUXUXUXUXUXUX",
"UXUXUXUXUXUXUXUXUXUXUXUXAXKXGXUXUXj l m M M B B C Z B N m f @ $ s d g d d d k UXUXUXUXUXUXUXUXUXd.K.U.I.L.L.L.I.K.UXUXUXUXUXUXUXUXd.d.g.J.U.P.UXUXUXUXUXUXUXUXUX",
"UXUXUXUXUXUXUXUXUXUXUXUXlXHXFXUXUXl k m M M M B M m l %   r ) ) ) ~ $ d g h h UXUXUXUXUXUXUX2.d.J.K.L.Y.F.q.L.F.U.UXUXUXUXUXi.p.g.g.J.U.J.J.K.P.tXyXUXUXUXUXUXUX",
"UXUXUXUXUXUXUXUXUXUXUXUXbXJXFXUXz h k m m M m m k v X O - o =X0X0X)   s g m k UXUXUXUXUXUXUX2.i.d.J.I.F.sXIXh.IXKXIXUXUXUXt.s.s.g.U.U.I.P.U.f.p.j.U.tXUXUXUXUXUX",
"UXUXUXmXHXKXUXUXUXUXUXUXmXHXLX^ h z k l m k g v ( ) ( 0XrX0X` eXrX{ _ % z z UXUXUXUXUXUXUX$.2.7.i.d.h.tXKXKXPXKXKXKXUXUXi.i.a.d.g.J.J.I.P.tXP.H.U.U.I.tXUXUXUXUX",
"UXUXUXlXAXDXKXKXUXUXUXnXmXDXHXvXd b k k h $ ( C.0X0XqXrXDXKXiXpXCXBXBXP UXUXUXUXUXUXUXUXUX$.*.3.t.a.a.PXKXKXLXLXyXPXIX+.t.i.p.d.g.H.J.I.I.I.P.P.P.U.U.H.tXUXUXUX",
"UXUXUXUXlXkXnXGXKXKXJXmXMXDXJXPX^ k z d % o { 0XrXeXiXnX<XFXLXpXCX5XmXiXUXUXUXUXUXUXUXUXUX$.$.2.3.3.g.LXKXKXKXIX=X|.f.6.3.e.i.p.d.g.J.J.I.I.tXtXP.I.I.U.g.tXUXUX",
"UXUXUXUXUXGXBXNXFXKXHXAXDXJXKXKX9Xd s % & + ` S.wXiXpX<X{.<XLXiXaX0XiXpXCXVXUXUXUXUXUXUXUX$.=.$.2.#.H.BX9XBXKXLX}.1X#.:.1.3.t.i.j.d.g.J.K.U.I.P.P.P.P.I.K.L.tXUX",
"UXDXHXJXJXJXJXHXHXKXKXKXJXKXKXKXIX0X_ + & % @ { wXiXpXkXe {.LXiXA.wXiXCXCXCXpXUXUXUXUXUXUX$.:.$.-.*.y.u.4Xe PXLX6X .:.&.<.1.3.t.f.d.g.g.J.K.U.I.P.P.P.U.L.K.g.UX",
"jXkXkXNXNXZXFXFXHXHXJXJXJXJXJXJXGXA.S._ + = @ L wXiXpXyX{.jXPX{ _ wXiXpXaXpXiXUXUXUXUXUXUXq =.$.$.$.e.6 R.R.vXLX3X..;.%.;.<.2.7.i.p.s.d.J.J.K.I.I.I.I.L.tXg.g.UX",
"lXDXGXGXHXLXGXHXHXHXHXJXJXJXJXHXFXBXA.| ( @ % { wXiXA.  a 9XC.( A.A.S.iXiXiXeXUXUXUXUXUXQ ! O.X.%.X.3.u.R.R.5XZXp #.;.%.%.*.2.5.t.i.j.d.d.d.g.J.J.K.I.g.g.g.g.g.",
"lXmXkXgXzXBXFXZXAXDXDXHXHXHXHXFXFXKXrX! { % v A.wXwX_   X o X . ( A.A.A.S.wXC.UXUXUXUXQ Q F 0 O.$.o.#.yXp   hXlXw.O.=.=.%.&.*.2.3.4.i.p.d.d.d.g.g.K.g.g.g.g.h.a.",
"dXdXlXFXHXHXZXgXlXMXMXAXAXFXMXMXLXLX' | { | { S.qXS.0X` X X o o   ( _ A.A.(   UXUXUXQ Q Q F I O.$.%.> uXFXbXMX:X2 %.%.%.%.%.*.,.2.5.t.i.p.f.j.d.g.g.g.g.g.g.s.i.",
"UXMXDXAXnXlXhXhX<XhXhXhXhXhXdXmXDX0XV G [ [ } S.S.S.A.0XA._ ; . .   o *   O UXUXUXUXQ Q F F J 2 X.$.,.h.tXtXu.o.X.%.%.%.%.&.%.&.,.2.1.3.4.i.p.p.d.d.j.s.s.j.a.i.",
"UXhXMXhXjXhXUXcXxXxXcXhXjX4X5XhX=XB S S C ' [ [ S.S.A.qXwX0X` C._ a a # _ D.UXUXUXUXA G F F K 2 $.;.i.G.U.g.u.w.4 %.o.%.%.&.%.&.&.*.<.1.3.4.e.9.i.p.p.p.p.a.a.9.",
"UXUXcXUXUXUXUXUXUXxXlXhXdXdXjX=Xk N Z C S C Q [ } S.S.A.D.wXa 2X9X3Xa A.eXUXUXUXUXUXUXU F c I O.-.6.#.0.g.g.5.o.4 $.o.&.%.&.&.&.&.=.*.<.1.5.3.4.e.e.e.9.e.i.p.4.",
"UXUXUXUXUXUXUXUXUXUXUXlXMXlX2Xd z j m B S S C F [ } S.S.S.wXA.  + . _ iXwXUXUXUXUXUXUXUXb A I O...y.uXIXPXIXbX,X5 X.%.%.%.%.;.&.&.=.&.*.,.<.1.5.5.5.5.4.4.e.9.UX",
"UXUXUXUXUXUXUXUXUXUXUXUXUXUXj l j g h m B Z S C F ' } S.S.qXwXrX_ { iXwXUXUXUXUXUXUXUXUXUXl 0 > 2XFXKXKXKXKXLXSXfX3 *.&.&.%.&.&.&.&.&.O.,.,.,.<.5.5.5.5.5.4.e.UX",
"UXUXUXUXUXUXUXUXUXUXUXUXUXUXUXg k g g h m B Z S D b | [ [ [ S.wXsXiXwXUXUXUXUXUXUXUXUXUXUXUXq ,XBXGXGXKXKXKXLXGXSX X, ;.&.&.&.&.&.&.&.&.,.O.&.,.,.<.<.<.5.4.UXUX",
"UXUXUXUXUXUXUXUXUXUXUXUXUXUXUXUXh k h g h l M Z S B t (.-X| ] ] { { t (.;XG UXUXUXUXUXQ G A 0 zXNXFXGXLXKXKXKXGXSXxXp , &.,.&.&.&.&.&.&.,.&.&.&.&.,.,.,.5.,.UXUX",
"UXUXUXUXUXUXUXUXUXUXUXUXUXUXUXUXUXg k h h h l M B C B r ].OX X-X^ N V ^ (.-X' G D ' Q Q b c 5XzXvXSXGXLXKXKXKXHXDXxX>Xu O.o.&.,.,.&.,.&.&.&.,.&.&.,.,.<.,.UXUXUX",
"UXUXUXUXUXUXUXUXUXUXUXUXUXUXUXUXUXUXUXk g g h k M B D m ; ].+XoX-X/ D S C (.OXM.V.B G F A ( fXzXnXSXDXGXLXKXKXLXSXSXzX}., ;.,.&.,.,.,.,.,.&.>.,.,.,.5.,.UXUXUXUX",
"UXUXUXUXUXUXUXUXUXUXUXUXUXUXUXUXUXUXUXUXk h g g l N m D M ; ].9XV.T.*X&X*X*X#X|.T.v.H F z ) gXzXzXSXSXGXHXLXKXLXGXSXxX4XO : O.,.,.>.,.,.,.,.,.<.<.6.<.UXUXUXUXUX",
"UXUXUXUXUXUXUXUXUXUXUXUXUXUXUXUXUXUXUXUXUXh g g g l m Z S F R.C.V.V.sX#X%X%X%X#X{.a d F c ) dXhXlXxXSXSXGXGXLXGXDXSXxXgXr o * 2 O.<.#.5.6.5.5.<.<.UXUXUXUXUXUXUX",
"UXUXUXUXUXUXUXUXUXUXUXUXUXUXUXUXUXUXUXUXUXUXh g g h l D V / .XR.C.T.dX$X%X%X%X&X$X`.@ v h ( 4XgXhXlXmXZXSXSXDXDXSXSXxXhXa @ n ; % q 1X<.>.<.UXUXUXUXUXUXUXUXUXUX",
"UXUXUXUXUXUXUXUXUXUXUXUXUXUXUXUXUXUXUXUXUXUXk l g g m D V (.XX[.~.^.oX%X%X%X$X$X@X+Xp =X=X^ 4XdXhXlXlXmXmXZXZXAXZXZXNXlX5Xa s s $ @  XUXUXUXUXUXUXUXUXUXUXUXUXUX",
"UXUXUXUXUXUXUXUXUXUXUXUXUXUXUXUXUXUXUXUXUXUXUXl h h H B ^ [.OX+X@X@X@X$X$X%X%X%X+X+X{. X8X=X X>XdXgXkXlXnXnXNXNXBXnXNXnXmXxX-Xa r r -XUXUXUXUXUXUXUXUXUXUXUXUXUX",
"UXUXUXUXUXUXUXUXUXUXUXUXUXUXUXUXUXUXUXUXUXUXUXn k j l j {.`.[..X.XoX$X$X$X$X$X+X+X@X.X2X4X=X| |.>X3XgX5XkXkXbXbXbXbXbXbXnXNXSXSXxXcXSXUXUXUXUXUXUXUXUXUXUXUXUXUX",
"UXUXUXUXUXUXUXUXUXUXUXUXUXUXUXUXUXUXUXUXUXUXUXUXn h ~ /.~.'.]..X.XXX+X+X$X$X$X$XoX@X.X>X4X=Xk ( |.>X>X4X5X5XkX7X7X7X7X7XkXbXZXSXAXDXSXUXUXUXUXUXUXUXUXUXUXUXUXUX",
"UXUXUXUXUXUXUXUXUXUXUXUXUXUXUXUXUXUXUXUXUXUXUXUX_.(._.~.W.'.].[.[..XXX+X+X+X+X+XoXXX.X[.4X) c f t |.|.:X4X3X4X5X6X5X8X5X7X8X7XbXnXBXUXUXUXUXUXUXUXUXUXUXUXUXUXUX",
"UXUXUXUXUXUXUXUXUXUXUXUXUXUXUXUXUXUXUXUXUXUXUXUXUX_.Q.).W._._.].[.[..X.X.X+X+X.XXXXX.XUXUXL A b f = u p |.|.:X:X2X2X3X3X5XUXUXUXUXUXUXUXUXUXUXUXUXUXUXUXUXUXUXUX",
"UXUXUXUXUXUXUXUXUXUXUXUXUXUXUXUXUXUXUXUXUXUXUXUXUX!.~.W.W._.`.].].].[..XXX+X+X$X%X%X%X@XUXUXF b v x $ * < u i p p p :XUXUXUXUXUXUXUXUXUXUXUXUXUXUXUXUXUXUXUXUXUX",
"UXUXUXUXUXUXUXUXUXUXUXUXUXUXUXUXUXUXUXUXUXUXUXUXUXUX_.W.W.~.`.~._.].].].]..X.XXX#X$X%X%X$XUXUXb x s * < < < 5 4 o., 3XcXUXUXUXUXUXUXUXUXUXUXUXUXUXUXUXUXUXUXUXUX",
"UXUXUXUXUXUXUXUXUXUXUXUXUXUXUXUXUXUXUXUXUXUXUXUXUXUX_.Q.~.W.W.W.).W.~._.`.].]..XXXoX$X$X%X+XUXUXUX: < < 3 4 9 9 w.2 >XcXUXUXUXUXUXUXUXUXUXUXUXUXUXUXUXUXUXUXUXUX",
"UXUXUXUXUXUXUXUXUXUXUXUXUXUXUXUXUXUXUXUXUXUXUXUXUXUX).Q.W.~.W.W.W.W.W.W.~.~.`.]..XXX#X$X+X+XUXUX< 5 2 r.y.y.y.w.4 O.3XxXUXUXUXUXUXUXUXUXUXUXUXUXUXUXUXUXUXUXUXUX",
"UXUXUXUXUXUXUXUXUXUXUXUXUXUXUXUXUXUXUXUXUXUXUXUXUXUX).Q.Q.Q.Q.Q.Q.Q.Q.Q.Q.~._.`.^..XoX#X+X+X).: 5 5 ;.i.d.K.I.U.y.O.3XxXUXUXUXUXUXUXUXUXUXUXUXUXUXUXUXUXUXUXUXUX",
"UXUXUXUXUXUXUXUXUXUXUXUXUXUXUXUXUXUXUXUXUXUXUXUXUXUXQ._.E.Q.E.E.E.E.E.E.E.E.E.`.`..X.XXX.X.X{., 4 4 9 e.j.g.I.Y.g.=.6XSXUXUXUXUXUXUXUXUXUXUXUXUXUXUXUXUXUXUXUXUX",
"UXUXUXUXUXUXUXUXUXUXUXUXUXUXUXUXUXUXUXUXUXUXUXUXUXUXUX)._.E.!.!.!.E.E.E.e E.E.~.`..X.X#X.X#X[.@.o.1 1  .q.h.K.I.U.3.5XSXUXUXUXUXUXUXUXUXUXUXUXUXUXUXUXUXUXUXUXUX",
"UXUXUXUXUXUXUXUXUXUXUXUXUXUXUXUXUXUXUXUXUXUXUXUXUXUXUXUX).).).Q.E.E.E.E.E.E.E.~.`.^..X.XXXoXOX1X;.K C.C.C.9.G.P.U.7.gXSXzXUXUXUXUXUXUXUXUXUXUXUXUXUXUXUXUXUXUXUX",
"UXUXUXUXUXUXUXUXUXUXUXUXUXUXUXUXUXUXUXUXUXUXUXUXUXUXUXUXUXUXUXw w w e w e Q.Q.W.`.]..XXXoX$X#X XP ! Z.D.iXuXs.L.I.F.BXSXzXUXUXUXUXUXUXUXUXUXUXUXUXUXUXUXUXUXUXUX",
"UXUXUXUXUXUXUXUXUXUXUXUXUXUXUXUXUXUXUXUXUXUXUXUXUXUXUXUXUXUXUXd s $ $ @ + e E.Q.^.]..X.XOX#X}.J Z.Z.m.! ! wXH.F.Y.F.PXGXkXUXUXUXUXUXUXUXUXUXUXUXUXUXUXUXUXUXUXUX",
"UXUXUXUXUXUXUXUXUXUXUXUXUXUXUXUXUXUXUXUXUXUXUXUXUXUXUXUXUXUX4X~ n n n t |.}.E.!.`.`.].OX.X{.J L P ! Z.Z.P L C.g.I.K.uXGXUXUXUXUXUXUXUXUXUXUXUXUXUXUXUXUXUXUXUXUX",
"UXUXUXUXUXUXUXUXUXUXUXUXUXUXUXUXUXUXUXUXUXUXUXUXUXUXUXUXUX8XPXBXNXkXNXvXvX2XR.!.~.`.].[.].8 x I I L P P P v 0 g.L.P.F.BXUXUXUXUXUXUXUXUXUXUXUXUXUXUXUXUXUXUXUXUX",
"UXUXUXUXUXUXUXUXUXUXUXUXUXUXUXUXUXUXUXUXUXUXUXUXo.4 3 3 3 5 9XyXsXvX7X8XC.p E.!.W.`.'.[.t = K - = K I x % x 8.i.K.P.G.yXUXUXUXUXUXUXUXUXUXUXUXUXUXUXUXUXUXUXUXUX",
"UXUXUXUXUXUXUXUXUXUXUXUXUXUXUXUXUXUXUXUXUXUXUXUX&.w.-.4 3 5 > > , , : > > 6 E.!.Q.'.'.w = - = = = = + K Z.D.C.6.F.I.I.J.UXUXUXUXUXUXUXUXUXUXUXUXUXUXUXUXUXUXUXUX",
"UXUXUXUXUXUXUXUXUXUXUXUXUXUXUXUXUXUXUXUXUXUXUXUXr.*.-.-.o.2 9 -.o.2 2 2 3 , w !.Q.~.w = = = & & # = L D.C.q 6 *.g.L.I.K.UXUXUXUXUXUXUXUXUXUXUXUXUXUXUXUXUXUXUXUX",
"UXUXUXUXUXUXUXUXUXUXUXUXUXUXUXUXUXUXUXUXUXUXUXUXUXr...%.$.$.$.2 2 2 2 2 9 5 y Q.w ; = = & & # & K P ` 9 6 < : X.p.K.I.P.UXUXUXUXUXUXUXUXUXUXUXUXUXUXUXUXUXUXUXUX",
"UXUXUXUXUXUXUXUXUXUXUXUXUXUXUXUXUXUXUXUXUXUXUXUXUX6X,.O.-.$.$.$.X.2 2 2 9 , y r = = & & # & 8 K 0 9 1 w.i 5 u X.3.G.I.P.J.UXUXUXUXUXUXUXUXUXUXUXUXUXUXUXUXUXUXUX",
"UXUXUXUXUXUXUXUXUXUXUXUXUXUXUXUXUXUXUXUXUXUXUXUXUXUX6X..%.%.$.@.@.X.2 2 , , , & & & o & - 8 0 5 1 9 w.f.O.i |.i 6.d.L.I.J.UXUXUXUXUXUXUXUXUXUXUXUXUXUXUXUXUXUXUX",
"UXUXUXUXUXUXUXUXUXUXUXUXUXUXUXUXUXUXUXUXUXUXUXUXUXUXUX6X....$.@.7 @.9 7 2 2 2 : o * K L 0 3 5 4 $.;.f.p.w.4X|.i =.s.I.Y.L.UXUXUXUXUXUXUXUXUXUXUXUXUXUXUXUXUXUXUX",
"UXUXUXUXUXUXUXUXUXUXUXUXUXUXUXUXUXUXUXUXUXUXUXUXUXUXUXUX6XO., $.7 , , 7 2 2 9 9 5 0 0 3 < 3 4 -.-.t.9.y.4X|.|.u =.F.Y.Y.L.UXUXUXUXUXUXUXUXUXUXUXUXUXUXUXUXUXUXUX",
"UXUXUXUXUXUXUXUXUXUXUXUXUXUXUXUXUXUXUXUXUXUXUXUXUXUXUXUXsX0Xi 1 , : : , $.-.e.t.r.w.o.w.w.w.o.o.%.#.y.kX4X|.u w.s.G.Y.Y.I.d.UXUXUXUXUXUXUXUXUXUXUXUXUXUXUXUXUXUX",
"UXUXUXUXUXUXUXUXUXUXUXUXUXUXUXUXUXUXUXUXUXUXUXUXUXUXUXN.c.c.m.Z.i 6 : @.:.3.i.d.g.g.g.e.r.w.w.O.&.6XNXgX2Xp u 4.F.K.Y.Y.L.g.UXUXUXUXUXUXUXUXUXUXUXUXUXUXUXUXUXUX",
"UXUXUXUXUXUXUXUXUXUXUXUXUXUXUXUXUXUXUXUXUXUXUXUXUXUXN.M.m.n.n.c.Z.` 0 *.6.7.7.s.g.g.g.g.e.e.o...2XNXkX3X=Xu 3 3.F.F.I.I.L.s.UXUXUXUXUXUXUXUXUXUXUXUXUXUXUXUXUXUX",
"UXUXUXUXUXUXUXUXUXUXUXUXUXUXUXUXUXUXUXUXUXUXUXUXUXUXN.z.x.n.n.n.E c.k.O.6.7.9.a.h.g.g.h.i.<.<...6XyX5X2Xi < 3 <.7.F.K.K.G.s.UXUXUXUXUXUXUXUXUXUXUXUXUXUXUXUXUXUX",
"UXUXUXUXUXUXUXUXUXUXUXUXUXUXUXUXUXUXUXUXUXUXUXUXUXB.M.E x.x.n.x.z.n.v.,.6.7.7.a.a.h.h.a.i.<.=.-.7XkX5Xu.> < , *.6.9.F.F.F.f.UXUXUXUXUXUXUXUXUXUXUXUXUXUXUXUXUXUX",
"UXUXUXUXUXUXUXUXUXUXUXUXUXUXUXUXUXUXUXUXUXUXUXUXUXB.E z.z.x.n.z.z.x.k.7.6.7.7.p.i.a.a.p.4.e...6XlXkXkX5Xy.y.5 *.:.7.a.d.F.f.UXUXUXUXUXUXUXUXUXUXUXUXUXUXUXUXUXUX",
"UXUXUXUXUXUXUXUXUXUXUXUXUXUXUXUXUXUXUXUXUXUXUXUXB.b.E l.z.z.x.E z.x.k.0.7.7.7.9.9.7.9.9.i.+.u.nXZXAXAX7XJ.P.;.5 =.*.7.9.H.UXUXUXUXUXUXUXUXUXUXUXUXUXUXUXUXUXUXUX",
"UXUXUXUXUXUXUXUXUXUXUXUXUXUXUXUXUXUXUXUXUXUXUXUXB.W E l.E z.z.W z.n.f.9.7.3.6.7.7.3.7.7.6.y.IXDXFXFXUXUXh.h.X.< 2.>.*.H.uXUXUXUXUXUXUXUXUXUXUXUXUXUXUXUXUXUXUXUX",
"UXUXUXUXUXUXUXUXUXUXUXUXUXUXUXUXUXUXUXUXUXUXUXB.c.E E l.E E E Y z.x.k.6.6.6.6.6.6.6.2.1...UXUXUXUXUXUXUXp.J.J.p.t.*.;.H.UXUXUXUXUXUXUXUXUXUXUXUXUXUXUXUXUXUXUXUX",
"UXUXUXUXUXUXUXUXUXUXUXUXUXUXUXUXUXUXUXUXUXUXUXN.E z.l.l.E E W U W c.k.>.8.6.=.*.*.*.=.=.UXUXUXUXUXUXUXUX>.a.s.e.=.=.y.uXUXUXUXUXUXUXUXUXUXUXUXUXUXUXUXUXUXUXUXUX",
"UXUXUXUXUXUXUXUXUXUXUXUXUXUXUXUXUXUXUXUXUXUXN.b.z.x.z.l.E W T U T l.k.O.=.$.$.@.@.=.$.UXUXUXUXUXUXUXUXUXUXUX..X.<.:.y.UXUXUXUXUXUXUXUXUXUXUXUXUXUXUXUXUXUXUXUXUX",
"UXUXUXUXUXUXUXUXUXUXUXUXUXUXUXUXUXUXUXUXUXN.B.E x.x.x.x.E T U Y U E k.> @.@.=.=.@.$.UXUXUXUXUXUXUXUXUXUXUXUXUXUX..UXUXUXUXUXUXUXUXUXUXUXUXUXUXUXUXUXUXUXUXUXUXUX",
"UXUXUXUXUXUXUXUXUXUXUXUXUXUXUXUXUXUXUXUXUXN.c.z.x.x.x.x.z.T U Y R W P  .@.$.=.UXUXUXUXUXUXUXUXUXUXUXUXUXUXUXUXUXUXUXUXUXUXUXUXUXUXUXUXUXUXUXUXUXUXUXUXUXUXUXUXUX",
"UXUXUXUXUXUXUXUXUXUXUXUXUXUXUXUXUXUXUXUXB.M.W z.x.x.x.z.z.Y c U T R R UXUXUXUXUXUXUXUXUXUXUXUXUXUXUXUXUXUXUXUXUXUXUXUXUXUXUXUXUXUXUXUXUXUXUXUXUXUXUXUXUXUXUXUXUX",
"UXUXUXUXUXUXUXUXUXUXUXUXUXUXUXUXUXUXUXUXM.W E l.z.z.z.z.l.U UXUXR R UXUXUXUXUXUXUXUXUXUXUXUXUXUXUXUXUXUXUXUXUXUXUXUXUXUXUXUXUXUXUXUXUXUXUXUXUXUXUXUXUXUXUXUXUXUX",
"UXUXUXUXUXUXUXUXUXUXUXUXUXUXUXUXUXUXUXv.v.U W E E z.z.z.l.UXUXUXUXUXUXUXUXUXUXUXUXUXUXUXUXUXUXUXUXUXUXUXUXUXUXUXUXUXUXUXUXUXUXUXUXUXUXUXUXUXUXUXUXUXUXUXUXUXUXUX",
"UXUXUXUXUXUXUXUXUXUXUXUXUXUXUXUXUXUXUXv.R U W W E E l.z.E UXUXUXUXUXUXUXUXUXUXUXUXUXUXUXUXUXUXUXUXUXUXUXUXUXUXUXUXUXUXUXUXUXUXUXUXUXUXUXUXUXUXUXUXUXUXUXUXUXUXUX",
"UXUXUXUXUXUXUXUXUXUXUXUXUXUXUXUXUXUXUXv.U R U W E E E E W UXUXUXUXUXUXUXUXUXUXUXUXUXUXUXUXUXUXUXUXUXUXUXUXUXUXUXUXUXUXUXUXUXUXUXUXUXUXUXUXUXUXUXUXUXUXUXUXUXUXUX",
"UXUXUXUXUXUXUXUXUXUXUXUXUXUXUXUXUXUXUXUXR U R U T T W E UXUXUXUXUXUXUXUXUXUXUXUXUXUXUXUXUXUXUXUXUXUXUXUXUXUXUXUXUXUXUXUXUXUXUXUXUXUXUXUXUXUXUXUXUXUXUXUXUXUXUXUX",
"UXUXUXUXUXUXUXUXUXUXUXUXUXUXUXUXUXUXUXUXUXT T U T U T U UXUXUXUXUXUXUXUXUXUXUXUXUXUXUXUXUXUXUXUXUXUXUXUXUXUXUXUXUXUXUXUXUXUXUXUXUXUXUXUXUXUXUXUXUXUXUXUXUXUXUXUX",
"UXUXUXUXUXUXUXUXUXUXUXUXUXUXUXUXUXUXUXUXUXUXU U U R UXUXUXUXUXUXUXUXUXUXUXUXUXUXUXUXUXUXUXUXUXUXUXUXUXUXUXUXUXUXUXUXUXUXUXUXUXUXUXUXUXUXUXUXUXUXUXUXUXUXUXUXUXUX"
};
